<?xml version="1.0" encoding="utf-8"?>
<!-- Generator: Adobe Illustrator 28.1.0, SVG Export Plug-In . SVG Version: 6.00 Build 0)  -->
<svg version="1.1" id="レイヤー_1" xmlns="http://www.w3.org/2000/svg" xmlns:xlink="http://www.w3.org/1999/xlink" x="0px"
	 y="0px" viewBox="0 0 349.1 100" style="enable-background:new 0 0 349.1 100;" xml:space="preserve">
<style type="text/css">
	.st0{fill:url(#SVGID_1_);}
	.st1{fill:none;stroke:#007713;stroke-width:2;}
	.st2{fill:#FFFFFF;}
	.st3{fill:url(#SVGID_00000049221041471103375590000018153609363001026436_);}
	.st4{fill:none;stroke:#007713;}
	.st5{fill:#007713;}
</style>
<g>
	
		<image style="overflow:visible;opacity:0.75;" width="374" height="109" xlink:href="19F47B4C.png"  transform="matrix(1 0 0 1 -12 7)">
	</image>
	<g>
		
			<linearGradient id="SVGID_1_" gradientUnits="userSpaceOnUse" x1="-0.152" y1="154.8896" x2="349.252" y2="220.1104" gradientTransform="matrix(1 0 0 1 0 -130)">
			<stop  offset="0" style="stop-color:#01612D"/>
			<stop  offset="1" style="stop-color:#076F17"/>
		</linearGradient>
		<path class="st0" d="M10,15h329.1c5.5,0,10,4.5,10,10v65c0,5.5-4.5,10-10,10H10c-5.5,0-10-4.5-10-10V25C0,19.5,4.5,15,10,15z"/>
		<path class="st1" d="M10,16h329.1c5,0,9,4,9,9v65c0,5-4,9-9,9H10c-5,0-9-4-9-9V25C1,20,5,16,10,16z"/>
	</g>
</g>
<g>
	<g>
		<g>
			<path class="st2" d="M51.2,55.4c-0.1,0.5-0.1,1.2-0.2,1.8c0,1.3,0,4.8,0,6.9c0,2.4,0.4,6.8,0.4,8.8c0,2.3-1.8,3.8-5,3.8
				c-4.1,0-6.1-1.6-6.1-4.3c0-2.6,2.3-4.4,6.1-4.4c5.4,0,9.3,2.5,11.4,4.3l-2.1,3.2c-2.4-2.3-5.8-4.5-9.8-4.5
				c-1.3,0-2.1,0.5-2.1,1.2c0,0.8,0.8,1.2,2,1.2s1.9-0.3,1.9-1.6c0-1.2-0.3-5.3-0.3-7.8c0-2.4,0-5.7,0-6.9c0-0.5,0-1.2-0.2-1.8h4
				V55.4z M40.8,57.4c1.8,0.3,4.4,0.5,5.8,0.5c3.4,0,6.5-0.1,10.2-0.7v3.3c-2.3,0.3-6.3,0.6-10.2,0.6c-1.4,0-4.1-0.2-5.8-0.4V57.4z
				 M40.7,62.7c1.5,0.3,4.5,0.5,5.6,0.5c5,0,8-0.3,10.9-0.6V66c-3.4,0.4-5.8,0.5-10.9,0.5c-1.3,0-4-0.1-5.5-0.3L40.7,62.7z
				 M75.9,55.8c-0.1,0.5-0.2,1.9-0.2,2.4c-0.1,1.6,0,6.6,0,8.6L72,65.7c0-1.7,0-6.2-0.1-7.5c-0.1-1.2-0.2-2-0.3-2.4
				C71.6,55.8,75.9,55.8,75.9,55.8z M61.8,58.6c3.8,0,10.3-0.1,12.9-0.1c2.2,0,6.2,0,7.7,0V62c-1.6-0.1-4.2-0.2-7.7-0.2
				c-4.5,0-9,0.2-12.7,0.4L61.8,58.6z M75.1,65.8c0,4.3-1.4,6.5-4.5,6.5c-1.8,0-4.3-1.5-4.3-4.6c0-2.9,2.3-4.7,5.1-4.7
				c3.4,0,5.2,2.5,5.2,5.6s-2,7.2-8,8.9l-3.1-3.1c3.9-0.8,7.5-2.1,7.5-6.5c0-1.2-0.7-1.9-1.7-1.9c-0.7,0-1.5,0.5-1.5,1.6
				c0,0.9,0.8,1.5,1.5,1.5c1,0,1.9-0.8,1-3.8L75.1,65.8z M78.9,55c0.6,0.9,1.2,1.9,1.6,2.8l-2.4,1c-0.5-1-0.9-1.9-1.6-2.8L78.9,55z
				 M82.2,54.3c0.6,0.9,1.2,1.9,1.6,2.8l-2.4,1c-0.5-1-1-1.9-1.6-2.8L82.2,54.3z M93.8,60c1.4,0.1,2.8,0.2,4.3,0.2
				c3,0,6-0.3,8.5-0.8V63c-2.5,0.4-5.6,0.6-8.5,0.6c-1.4,0-2.9,0-4.3-0.1V60z M103.4,56c-0.1,0.5-0.1,1.1-0.1,1.6
				c0,0.7-0.1,2.4-0.1,4.3c0,4.8,0.4,7.6,0.4,9.7c0,2.8-1.4,4.6-5,4.6c-3.4,0-5.6-1.4-5.6-4.2c0-2.7,2.2-4.4,5.6-4.4
				c4.8,0,7.7,2.4,9.5,4.1l-2,3c-2.9-2.7-5.3-4.3-7.8-4.3c-1.1,0-1.9,0.4-1.9,1.2c0,0.8,0.8,1.1,1.9,1.1c1.2,0,1.6-0.6,1.6-1.9
				c0-1.6-0.3-5.4-0.3-9c0-1.9,0-3.6,0-4.2c0-0.4-0.1-1.2-0.2-1.7h4V56z M91.7,56.4c-0.2,0.5-0.6,2-0.6,2.4C90.8,60,90,65.6,90,67.9
				c0,0.1,0,0.5,0,0.6c0.3-0.7,0.6-1.2,0.9-1.9l1.8,1.4c-0.7,2.2-1.4,4.6-1.7,6c-0.1,0.3-0.1,0.9-0.1,1.1c0,0.3,0,0.7,0,1.1
				l-3.3,0.2c-0.5-1.6-1-4.4-1-7.7c0-3.7,0.7-8.2,0.9-10c0.1-0.7,0.2-1.8,0.3-2.7L91.7,56.4z M170.1,58.2c1,0,2-0.1,2.5-0.1
				c2.3-0.2,5.9-0.5,10.3-0.9c2.4-0.2,5.2-0.4,7-0.4v3.7c-1.2,0-3.3,0-4.6,0.3c-2.6,0.6-4.8,3.4-4.8,6.2c0,3.5,3.3,4.9,7.5,5.2
				l-1.4,4c-5.4-0.4-9.9-3.3-9.9-8.4c0-3.3,1.8-5.8,3-7c-2.1,0.2-6.3,0.7-9.2,1.3L170.1,58.2z M186.4,62.5c0.6,0.9,1.4,2.3,1.9,3.2
				l-2.1,0.9c-0.6-1.4-1.1-2.2-1.8-3.3L186.4,62.5z M189.1,61.4c0.6,0.9,1.5,2.3,2,3.1l-2.1,1c-0.7-1.4-1.2-2.1-1.9-3.2L189.1,61.4z
				"/>
			
				<linearGradient id="SVGID_00000072999645554322350760000018443072154364779181_" gradientUnits="userSpaceOnUse" x1="210.8" y1="202" x2="210.8" y2="170" gradientTransform="matrix(1 0 0 1 0 -130)">
				<stop  offset="0" style="stop-color:#D79627"/>
				<stop  offset="5.000000e-02" style="stop-color:#FBC24F"/>
				<stop  offset="0.375" style="stop-color:#FFF89B"/>
			</linearGradient>
			<path style="fill:url(#SVGID_00000072999645554322350760000018443072154364779181_);" d="M115.1,67.4h16.5v2.5h-16.5
				C115.1,69.9,115.1,67.4,115.1,67.4z M115.1,63.6h19v10h-19v-2.8h14.7v-4.3h-14.7C115.1,66.5,115.1,63.6,115.1,63.6z M121.1,65.2
				h4.2v8c0,1.2,0.3,1.3,2.1,1.3c0.8,0,4.1,0,5.2,0c1.4,0,1.7-0.4,1.9-2.7c0.9,0.6,2.5,1.1,3.6,1.4c-0.5,3.6-1.6,4.6-5.2,4.6
				c-1,0-4.9,0-5.9,0c-4.6,0-5.8-1-5.8-4.6v-8H121.1z M112.9,63.6h4.2v11.2h-4.2V63.6z M112.3,50.3h22.4v3.1h-22.4
				C112.3,53.4,112.3,50.3,112.3,50.3z M114.8,57.7h5.7v2.2h-5.7V57.7z M114.3,60.6h6.2v2.3h-6.2V60.6z M126.5,60.6h6.2v2.3h-6.2
				V60.6z M126.5,57.7h5.6v2.2h-5.6V57.7z M121.3,51.6h4.3v11.3h-4.3V51.6z M110.1,54.2h27.1v6.3h-4V57H114v3.5h-3.8L110.1,54.2
				L110.1,54.2z M152.7,65.5h14.2v12.3h-4.4v-8.4h-5.7v8.5h-4.1V65.5z M164.3,49.6l3,3.6c-4.3,1.3-9.8,2-14.6,2.2
				c-0.1-1-0.7-2.7-1.2-3.7C156.1,51.4,161,50.6,164.3,49.6z M157.3,52.7h4.5v14.7h-4.5V52.7z M151.2,58H168v4.1h-16.8V58z
				 M155.4,72.5h9.1v3.9h-9.1V72.5z M140.8,58.9h9.2v3.2h-9.2V58.9z M141,50.2h9.1v3.2H141V50.2z M140.8,63.1h9.2v3.2h-9.2V63.1z
				 M139.3,54.5h11.6v3.4h-11.6V54.5z M142.9,67.4h7.2v9.3h-7.2v-3.4h3.5v-2.5h-3.5V67.4z M140.7,67.4h3.6v10.4h-3.6V67.4z
				 M199.3,49.3l4.3,1.3c-1.6,3.3-4.4,6.5-6.9,8.5c-0.8-0.8-2.5-2.2-3.6-2.8C195.6,54.7,198,52,199.3,49.3z M199.5,52.3h20.7v3.8
				h-21.6L199.5,52.3z M193.9,59.3h27.3v3.9h-27.3V59.3z M194.4,66.2h26.3v3.9h-26.3V66.2z M203.2,53.7h3.6v14.6h-3.6V53.7z
				 M197.9,53.7h3.8v14.6h-3.8V53.7z M208.3,53.7h3.6v14.6h-3.6V53.7z M213.5,53.7h4v14.6h-4V53.7z M202.3,71.6l4.1-0.5
				c0.4,1.9,0.8,4.3,0.8,5.8l-4.3,0.6C202.8,76,202.6,73.5,202.3,71.6z M208.2,71.7l4.1-0.7c0.7,1.8,1.4,4.2,1.7,5.7l-4.4,0.8
				C209.4,76.1,208.8,73.6,208.2,71.7z M214,71.6l4.2-1.3c1.3,1.9,2.9,4.4,3.7,6.1l-4.5,1.5C216.8,76.2,215.3,73.5,214,71.6z
				 M196.8,70.4l4.3,1c-0.6,2.3-1.9,4.8-3.2,6.5l-4.2-1.7C194.8,74.9,196.1,72.6,196.8,70.4z M227.9,49.5h4v28.2h-4V49.5z
				 M223.5,59.3h12.6v4h-12.6V59.3z M227.1,61.5l2.3,1.2c-0.9,4-2.6,9.2-4.6,12.2c-0.4-1.3-1.3-3.3-1.9-4.6
				C224.7,68.1,226.4,64.2,227.1,61.5z M231.9,63.4c0.9,0.7,3.7,3.8,4.4,4.6l-2.6,3.4c-0.8-1.8-2.6-4.8-3.7-6.3L231.9,63.4z
				 M223.4,51.9l3-0.8c0.8,2.2,1.3,5.2,1.4,7.1l-3.2,0.9C224.5,57.1,224,54.1,223.4,51.9z M233.4,50.9l3.6,0.8
				c-0.8,2.5-1.7,5.4-2.4,7.2l-2.7-0.8C232.5,56.2,233.1,53.1,233.4,50.9z M244.5,49.3h4.1v28.5h-4.1V49.3z M236,67.9l15.4-2.8
				l0.6,4L236.7,72L236,67.9z M237.4,53.6l2.1-2.9c1.6,1,3.8,2.5,4.8,3.6l-2.2,3.3C241.2,56.4,239.1,54.8,237.4,53.6z M236.1,61.2
				l2-3.1c1.7,0.9,4,2.4,5.1,3.5l-2.2,3.5C240.1,63.9,237.9,62.3,236.1,61.2z M253.8,73.6h27.6v3.8h-27.6V73.6z M260.8,66.3h13.4
				v2.9h-13.4V66.3z M260.8,69.9h13.4v2.9h-13.4V69.9z M258.7,62.1h17.7v13.6H272V65.6h-9v10.2h-4.3V62.1z M254.1,52.4h27v3.8h-27
				V52.4z M265.3,49.3h4.3v12h-4.3V49.3z M263.4,53.7L267,55c-2.5,4.1-6.5,7.4-11.2,9.2c-0.6-1-1.8-2.6-2.7-3.4
				C257.4,59.5,261.4,56.8,263.4,53.7z M271.2,53.7c2.1,3,6.2,5.7,10.7,7c-0.9,0.8-2.2,2.4-2.8,3.5c-4.7-1.7-8.8-5.1-11.4-9.1
				L271.2,53.7z M289.5,58.3h16.1v4.1h-16.1V58.3z M297.6,65.6h10.1v4.1h-10.1V65.6z M295.3,60.8h4.6v14.1l-4.6-0.5V60.8z
				 M288.1,63.7l4.6,0.5c-0.8,6.2-2.6,11-6,13.9c-0.7-0.8-2.6-2.3-3.6-3C286.2,72.8,287.6,68.7,288.1,63.7z M291.8,67.3
				c1.8,5.2,5.7,5.9,10.6,5.9c1.9,0,6.8,0,9.1-0.1c-0.6,1-1.3,3.1-1.5,4.4h-7.8c-6.8,0-11.4-1.4-13.9-9.1L291.8,67.3z M295.2,49.4
				h4.7v5.8h-4.7V49.4z M284.5,52.2h26.2v8.1h-4.5v-4h-17.4v4h-4.3L284.5,52.2L284.5,52.2z"/>
		</g>
	</g>
</g>
<g>
	<path class="st2" d="M39.9,0h269.3c3.3,0,6,2.7,6,6v26c0,3.3-2.7,6-6,6H39.9c-3.3,0-6-2.7-6-6V6C33.9,2.7,36.6,0,39.9,0z"/>
	<path class="st4" d="M39.9,0.5h269.3c3,0,5.5,2.5,5.5,5.5v26c0,3-2.5,5.5-5.5,5.5H39.9c-3,0-5.5-2.5-5.5-5.5V6
		C34.4,3,36.9,0.5,39.9,0.5z"/>
</g>
<path class="st5" d="M58.1,16.4v5.3h-1.9v-3.4h-1.7v-1.9C54.5,16.4,58.1,16.4,58.1,16.4z M58.1,20.9c0.5,0.9,1.3,1.2,2.6,1.3
	c1.8,0.1,5.1,0,7.2-0.1c-0.2,0.5-0.5,1.4-0.6,2c-1.8,0.1-4.8,0.1-6.6,0c-1.6-0.1-2.6-0.4-3.5-1.5c-0.6,0.5-1.2,1-2,1.6l-0.9-2
	c0.6-0.4,1.4-0.8,2-1.2L58.1,20.9L58.1,20.9z M54.7,12.6l1.4-1.3c0.9,0.6,2,1.5,2.5,2.1l-1.5,1.5C56.6,14.2,55.6,13.3,54.7,12.6z
	 M60.4,14l1.3-1.1c1.2,0.4,3,1.2,3.9,1.7l-1.4,1.2C63.4,15.3,61.7,14.5,60.4,14z M59.2,14.5h7.1V16h-5.2v5.8h-1.9
	C59.2,21.8,59.2,14.5,59.2,14.5z M65.3,14.5h1.9v5.6c0,0.8-0.1,1.2-0.6,1.5s-1.1,0.3-1.9,0.3c-0.1-0.5-0.3-1.1-0.5-1.6
	c0.3,0,0.8,0,0.9,0c0.2,0,0.2-0.1,0.2-0.2V14.5z M59.4,11.4h6.5v1.5h-6.5V11.4z M60.2,16.5h5.7v1.4h-5.7V16.5z M60.2,18.4h5.7v1.4
	h-5.7V18.4z M62.3,15.2h1.8v6.5h-1.8V15.2z M65.1,11.4h0.5l0.4-0.1l1.2,1c-1,1-2.4,2-3.7,2.7c-0.2-0.3-0.7-0.9-1-1.1
	c1-0.5,2.2-1.5,2.6-2.1V11.4z M74.7,18.5h6.6v5.7h-2v-3.9h-2.7v4h-1.9V18.5z M80.1,11.1l1.4,1.7c-2,0.6-4.6,0.9-6.8,1.1
	c-0.1-0.5-0.3-1.3-0.6-1.7C76.3,12,78.6,11.6,80.1,11.1z M76.9,12.6H79v6.9h-2.1V12.6z M74,15.1h7.8V17H74V15.1z M76,21.9h4.2v1.8
	H76V21.9z M69.2,15.5h4.3V17h-4.3V15.5z M69.3,11.4h4.2v1.5h-4.2V11.4z M69.2,17.5h4.3V19h-4.3V17.5z M68.5,13.4h5.4V15h-5.4V13.4z
	 M70.2,19.5h3.4v4.4h-3.4v-1.6h1.7v-1.2h-1.7V19.5z M69.1,19.5h1.7v4.9h-1.7V19.5z M84.6,11.1h1.9v13.2h-1.9V11.1z M82.6,15.7h5.9
	v1.9h-5.9V15.7z M84.3,16.7l1.1,0.6c-0.4,1.9-1.2,4.3-2.1,5.7c-0.2-0.6-0.6-1.6-0.9-2.1C83.1,19.8,83.9,17.9,84.3,16.7z M86.5,17.6
	c0.4,0.3,1.7,1.8,2,2.2l-1.2,1.6c-0.4-0.8-1.2-2.2-1.7-3L86.5,17.6z M82.5,12.2l1.4-0.4c0.3,1.1,0.6,2.4,0.7,3.3l-1.5,0.4
	C83.1,14.7,82.8,13.3,82.5,12.2z M87.2,11.8l1.7,0.3c-0.4,1.2-0.8,2.5-1.1,3.4l-1.3-0.4C86.8,14.2,87.1,12.8,87.2,11.8z M92.4,11
	h1.9v13.3h-1.9V11z M88.4,19.7l7.2-1.3l0.3,1.9l-7.2,1.3L88.4,19.7z M89.1,13l1-1.4c0.8,0.5,1.8,1.2,2.2,1.7l-1.1,1.5
	C90.8,14.3,89.8,13.6,89.1,13z M88.5,16.6l1-1.5c0.8,0.4,1.9,1.1,2.4,1.6l-1,1.6C90.3,17.8,89.3,17.1,88.5,16.6z M99.3,11l2,0.6
	c-0.8,1.5-2,3-3.2,3.9c-0.4-0.4-1.2-1-1.7-1.3C97.6,13.5,98.7,12.3,99.3,11z M99.4,12.4h9.6v1.8H98.9L99.4,12.4z M96.8,15.7h12.7
	v1.8H96.8V15.7z M97,18.9h12.3v1.8H97V18.9z M101.1,13.1h1.7v6.8h-1.7V13.1z M98.6,13.1h1.8v6.8h-1.8V13.1z M103.5,13.1h1.7v6.8
	h-1.7V13.1z M105.9,13.1h1.9v6.8h-1.9V13.1z M100.7,21.4l1.9-0.2c0.2,0.9,0.4,2,0.4,2.7l-2,0.3C100.9,23.5,100.8,22.3,100.7,21.4z
	 M103.4,21.5l1.9-0.3c0.3,0.8,0.7,1.9,0.8,2.7l-2,0.4C104,23.5,103.7,22.3,103.4,21.5z M106.2,21.4l2-0.6c0.6,0.9,1.4,2.1,1.7,2.9
	l-2.1,0.7C107.5,23.6,106.7,22.3,106.2,21.4z M98.1,20.8l2,0.5c-0.3,1.1-0.9,2.3-1.5,3l-2-0.8C97.2,23,97.8,21.9,98.1,20.8z
	 M112.6,11.1h1.9v13.2h-1.9V11.1z M110.6,15.7h5.9v1.9h-5.9V15.7z M112.3,16.7l1.1,0.6c-0.4,1.9-1.2,4.3-2.1,5.7
	c-0.2-0.6-0.6-1.6-0.9-2.1C111.1,19.8,111.9,17.9,112.3,16.7z M114.5,17.6c0.4,0.3,1.7,1.8,2,2.2l-1.2,1.6c-0.4-0.8-1.2-2.2-1.7-3
	L114.5,17.6z M110.5,12.2l1.4-0.4c0.3,1.1,0.6,2.4,0.7,3.3l-1.5,0.4C111.1,14.7,110.8,13.3,110.5,12.2z M115.2,11.8l1.7,0.3
	c-0.4,1.2-0.8,2.5-1.1,3.4l-1.3-0.4C114.8,14.2,115.1,12.8,115.2,11.8z M120.4,11h1.9v13.3h-1.9V11z M116.4,19.7l7.2-1.3l0.3,1.9
	l-7.2,1.3L116.4,19.7z M117.1,13l1-1.4c0.8,0.5,1.8,1.2,2.2,1.7l-1.1,1.5C118.8,14.3,117.8,13.6,117.1,13z M116.5,16.6l1-1.5
	c0.8,0.4,1.9,1.1,2.4,1.6l-1,1.6C118.3,17.8,117.3,17.1,116.5,16.6z M126.1,19.2l-0.4-4.7l-0.1-2.2h2.5l-0.1,2.2l-0.4,4.7H126.1z
	 M126.9,23.2c-0.9,0-1.5-0.7-1.5-1.6s0.6-1.5,1.5-1.5s1.5,0.7,1.5,1.5S127.8,23.2,126.9,23.2z M144.5,15h12.4v3.2h-2v-1.4h-8.5v1.4
	h-1.9V15z M146.7,17.6h7.1v1.9h-7.1V17.6z M155.2,10.9l1.4,1.7c-3.4,0.6-7.7,0.9-11.5,1c0-0.5-0.3-1.3-0.4-1.7
	C148.4,11.8,152.5,11.4,155.2,10.9z M145.9,13.8l1.8-0.5c0.3,0.5,0.6,1.1,0.7,1.5l-1.9,0.5C146.4,15,146.1,14.3,145.9,13.8z
	 M149.6,13.5l1.8-0.4c0.3,0.5,0.5,1.2,0.6,1.7l-1.9,0.5C150,14.8,149.8,14.1,149.6,13.5z M153.8,13.1l2.2,0.5
	c-0.5,0.9-1,1.7-1.4,2.3l-1.7-0.5C153.3,14.7,153.6,13.8,153.8,13.1z M153.1,17.6h0.4l0.3-0.1l1.4,0.8c-1.6,3.7-5.4,5.2-9.9,5.8
	c-0.2-0.5-0.8-1.4-1.2-1.8c4.4-0.4,7.8-1.5,8.9-4.4v-0.3H153.1z M148.5,19c1.5,1.9,4.6,2.9,8.7,3.2c-0.4,0.5-1,1.4-1.2,1.9
	c-4.2-0.5-7.2-1.8-9.2-4.4L148.5,19z M162.7,14h8.7v2.1h-8.7V14z M167.8,11.2h2.1V22c0,1.2-0.3,1.7-1,2c-0.8,0.3-1.9,0.4-3.5,0.3
	c-0.1-0.6-0.5-1.5-0.8-2c1,0.1,2.3,0.1,2.6,0c0.4,0,0.5-0.1,0.5-0.4L167.8,11.2L167.8,11.2z M163.1,17.7l1.8-0.8
	c0.6,1,1.4,2.3,1.8,3.2l-1.9,1C164.5,20.1,163.7,18.7,163.1,17.7z M159.9,15.3l2-2l0,0v11h-2.1v-9H159.9z M161.2,11.1l2,0.6
	c-0.9,2.4-2.5,5.1-4.1,6.7c-0.2-0.5-0.8-1.7-1.2-2.2C159.3,15.1,160.5,13.1,161.2,11.1z M177.7,12.4h7.3v1.8h-7.3V12.4z M177.4,15.1
	h8v1.8h-8V15.1z M177.4,17.8h7.9v1.8h-7.9V17.8z M180.3,11h2v5.2h-2V11z M182.1,16.8h2v5.4c0,0.9-0.2,1.4-0.8,1.7
	c-0.6,0.3-1.4,0.3-2.4,0.3c-0.1-0.6-0.4-1.4-0.6-1.9c0.6,0,1.3,0,1.6,0c0.2,0,0.3,0,0.3-0.2v-5.3H182.1z M177.7,20.5l1.6-0.9
	c0.6,0.7,1.3,1.6,1.6,2.2l-1.8,1C179,22.2,178.4,21.2,177.7,20.5z M173.4,11.9h3.7v9.8h-3.7v-1.8h1.8v-6.2h-1.8V11.9z M173.5,15.8
	h2.6v1.8h-2.6V15.8z M172.5,11.9h1.9V23h-1.9V11.9z M190.9,19.6h3.6V21h-3.6V19.6z M190.8,17.5h4.7V23h-4.7v-1.5h2.8V19h-2.8V17.5z
	 M189.9,17.5h1.8v6.2h-1.8V17.5z M187.7,13.5h3.3v1.3h-3.3V13.5z M194.3,13.5h3.3v1.3h-3.3V13.5z M196.7,11.5h2.1V22
	c0,1-0.2,1.6-0.8,1.9s-1.5,0.4-2.7,0.4c-0.1-0.6-0.4-1.5-0.6-2.1c0.7,0.1,1.5,0,1.8,0s0.3-0.1,0.3-0.3V11.5H196.7z M187.9,11.5h4.4
	v5.2h-4.4v-1.4h2.5V13h-2.5V11.5z M197.8,11.5V13H195v2.4h2.8v1.4H193v-5.3C193,11.5,197.8,11.5,197.8,11.5z M186.7,11.5h2v12.8h-2
	V11.5z M204,23v-2h2.2v-5.9h-1.9v-1.5c1.1-0.2,1.8-0.5,2.6-1h1.8V21h1.9v2H204z M215.7,23.2c-2.2,0-3.7-1.9-3.7-5.5s1.5-5.3,3.7-5.3
	s3.7,1.8,3.7,5.3C219.4,21.3,217.9,23.2,215.7,23.2z M215.7,21.3c0.7,0,1.3-0.7,1.3-3.5s-0.6-3.4-1.3-3.4s-1.3,0.6-1.3,3.4
	S215,21.3,215.7,21.3z M222.4,18.1c-0.9,0-1.5-0.7-1.5-1.5s0.6-1.5,1.5-1.5s1.5,0.7,1.5,1.5C223.9,17.4,223.3,18.1,222.4,18.1z
	 M222.4,23.2c-0.9,0-1.5-0.7-1.5-1.6s0.6-1.5,1.5-1.5s1.5,0.7,1.5,1.5S223.3,23.2,222.4,23.2z M229.1,23.2c-2.2,0-3.7-1.9-3.7-5.5
	s1.5-5.3,3.7-5.3s3.7,1.8,3.7,5.3C232.8,21.3,231.3,23.2,229.1,23.2z M229.1,21.3c0.7,0,1.3-0.7,1.3-3.5s-0.6-3.4-1.3-3.4
	s-1.3,0.6-1.3,3.4S228.4,21.3,229.1,21.3z M237.7,23.2c-2.2,0-3.7-1.9-3.7-5.5s1.5-5.3,3.7-5.3s3.7,1.8,3.7,5.3
	C241.4,21.3,239.9,23.2,237.7,23.2z M237.7,21.3c0.7,0,1.3-0.7,1.3-3.5s-0.6-3.4-1.3-3.4s-1.3,0.6-1.3,3.4
	C236.3,20.6,236.9,21.3,237.7,21.3z M248.2,18.4c-0.5-0.6-1-0.9-1.9-0.9c-0.8,0-1.5,0.6-2,1.6l-1.8-1c1-1.8,2.4-2.7,3.9-2.7
	c1.4,0,2.5,0.5,3.4,1.6c0.5,0.6,1,0.9,1.9,0.9c0.8,0,1.5-0.6,2-1.6l1.8,1c-1,1.8-2.4,2.7-3.9,2.7C250.2,20,249.1,19.5,248.2,18.4z
	 M257,23v-2h2.2v-5.9h-1.9v-1.5c1.1-0.2,1.8-0.5,2.6-1h1.8V21h1.9v2H257z M268.2,23.2c-1.4,0-2.4-0.6-3.1-1.2l1.3-1.5
	c0.4,0.4,1,0.7,1.6,0.7c1.1,0,2-0.9,2-3.5c0-2.7-0.8-3.4-1.6-3.4c-0.7,0-1.2,0.5-1.2,1.7c0,1.1,0.6,1.5,1.3,1.5c0.5,0,1.1-0.3,1.5-1
	l0.1,1.6c-0.5,0.7-1.5,1.2-2.1,1.2c-1.8,0-3.1-1-3.1-3.3c0-2.2,1.6-3.5,3.4-3.5c2,0,3.9,1.5,3.9,5.3S270.3,23.2,268.2,23.2z
	 M275.5,18.1c-0.9,0-1.5-0.7-1.5-1.5s0.6-1.5,1.5-1.5s1.5,0.7,1.5,1.5C277,17.4,276.3,18.1,275.5,18.1z M275.5,23.2
	c-0.9,0-1.5-0.7-1.5-1.6s0.6-1.5,1.5-1.5s1.5,0.7,1.5,1.5S276.3,23.2,275.5,23.2z M282.2,23.2c-2.2,0-3.7-1.9-3.7-5.5
	s1.5-5.3,3.7-5.3s3.7,1.8,3.7,5.3C285.9,21.3,284.4,23.2,282.2,23.2z M282.2,21.3c0.7,0,1.3-0.7,1.3-3.5s-0.6-3.4-1.3-3.4
	c-0.7,0-1.3,0.6-1.3,3.4C280.8,20.6,281.4,21.3,282.2,21.3z M290.7,23.2c-2.2,0-3.7-1.9-3.7-5.5s1.5-5.3,3.7-5.3s3.7,1.8,3.7,5.3
	C294.4,21.3,292.9,23.2,290.7,23.2z M290.7,21.3c0.7,0,1.3-0.7,1.3-3.5s-0.6-3.4-1.3-3.4c-0.7,0-1.3,0.6-1.3,3.4
	C289.4,20.6,290,21.3,290.7,21.3z"/>
</svg>
