<?xml version="1.0" encoding="utf-8"?>
<!-- Generator: Adobe Illustrator 28.1.0, SVG Export Plug-In . SVG Version: 6.00 Build 0)  -->
<svg version="1.1" id="レイヤー_1" xmlns="http://www.w3.org/2000/svg" xmlns:xlink="http://www.w3.org/1999/xlink" x="0px"
	 y="0px" viewBox="0 0 390 134" style="enable-background:new 0 0 390 134;" xml:space="preserve">
<style type="text/css">
	.st0{fill:url(#SVGID_1_);}
	.st1{fill:#FFFFFF;}
	.st2{fill:url(#SVGID_00000025423652694971960760000016776388342224812962_);}
	.st3{fill:url(#SVGID_00000181802298210668900290000010667916028750668970_);}
	.st4{fill:url(#SVGID_00000070812421635937513940000014302630650736511398_);}
	.st5{fill:url(#SVGID_00000060724656418191776760000008608540907415138986_);}
	.st6{fill:#9F6C15;}
	.st7{fill:#CE2323;}
</style>
<linearGradient id="SVGID_1_" gradientUnits="userSpaceOnUse" x1="-3.3854" y1="97.245" x2="394.3755" y2="40.6141" gradientTransform="matrix(1 0 0 -1 0 136)">
	<stop  offset="0" style="stop-color:#AD0000"/>
	<stop  offset="1" style="stop-color:#CE2323"/>
</linearGradient>
<rect class="st0" width="390" height="134"/>
<g>
	
		<image style="overflow:visible;opacity:0.5;" width="277" height="57" xlink:href="5BDF4738.png"  transform="matrix(1 0 0 1 57 67)">
	</image>
	<g>
		<g>
			<path class="st1" d="M74.8,92.8v0.5h7.6v-0.5H74.8z M74.8,90.6v0.5h7.6v-0.5H74.8z M72.1,88.8h13.3v6.3H72.1V88.8z M69.7,95.6h18
				v2.3h-18V95.6z M79,98.4h6.2v2.2H79V98.4z M73,98.4h4.3v2H73V98.4z M73,100.9h4.3v2H73V100.9z M81.7,100.3
				c1.1,2.2,3.4,3.9,6.5,4.6c-0.6,0.5-1.3,1.6-1.7,2.3c-3.4-1-5.7-3.1-7.1-6.2L81.7,100.3z M84.4,98.4h0.5l0.5-0.1l1.8,0.7
				c-1.1,4.2-3.7,6.8-7.3,8.3c-0.3-0.7-1-1.7-1.6-2.3c3-1,5.3-3.3,6.1-6.2V98.4z M69.5,103.7c2-0.1,5-0.3,7.8-0.4v2.3
				c-2.7,0.2-5.5,0.4-7.6,0.6L69.5,103.7z M75.9,96.4h2.8v10.8h-2.8V96.4z M71.2,96.4h2.6v8.2h-2.6V96.4z M89.8,93.3h17.9v3H89.8
				V93.3z M100.4,94.6c1.1,4.4,3.6,8.1,7.9,9.8c-0.7,0.6-1.7,1.9-2.2,2.8c-4.7-2.2-7.1-6.3-8.6-11.8L100.4,94.6z M97,88.2h3.2
				c-0.1,6.6-0.1,14.7-8.6,18.9c-0.5-0.8-1.3-1.8-2.2-2.5C97.4,101,97,93.9,97,88.2z M134.3,89.5H152v2.8h-17.7V89.5z M140.7,95.1
				h7.8v2.8h-7.8V95.1z M147.4,95.1h3.1c0,0,0,0.9-0.1,1.2c-0.3,6-0.6,8.5-1.4,9.4c-0.7,0.8-1.4,1-2.4,1.1c-0.8,0.1-2.2,0.1-3.5,0.1
				c-0.1-0.8-0.5-2.1-1-2.9c1.3,0.1,2.7,0.1,3.3,0.1c0.4,0,0.7,0,1-0.3c0.6-0.5,0.9-3.1,1.1-8.3V95.1z M138.5,91.9h3.1
				c-0.2,5.7-0.6,11.7-6.2,15.2c-0.4-0.8-1.3-1.8-2.1-2.4C138.4,101.8,138.4,96.7,138.5,91.9z M154.6,89.4h15.7v2.9h-12.8v14.9h-2.9
				V89.4z M168.9,89.4h2.9v14.5c0,1.5-0.3,2.3-1.2,2.7c-0.9,0.5-2.2,0.5-3.9,0.5c-0.1-0.8-0.6-2.2-1-2.9c1,0.1,2.4,0.1,2.7,0.1
				c0.4,0,0.5-0.1,0.5-0.5V89.4z M156.2,96.8h14.1v2.9h-14.1V96.8z M161.6,91h2.9v7.3h-2.9V91z M195.6,84.5c0,0.8,0.7,1.5,1.5,1.5
				c0.8,0,1.5-0.7,1.5-1.5c0-0.8-0.7-1.5-1.5-1.5C196.3,83,195.6,83.7,195.6,84.5z M193.6,84.5c0-1.9,1.6-3.5,3.5-3.5
				c1.9,0,3.5,1.6,3.5,3.5S199,88,197.1,88C195.2,88,193.6,86.4,193.6,84.5z M197.6,86.9c-0.3,0.6-0.6,1.6-0.7,2.2
				c-0.7,2.6-1.8,6.9-4.2,10.1c-2.5,3.4-6.5,6.3-11.4,7.9l-3.7-4.1c5.6-1.3,8.8-3.7,11-6.5c1.8-2.2,2.7-5,3.1-7.2
				c-1.7,0-9.9,0-12.3,0c-1.4,0-2.9,0.1-3.6,0.1v-4.8c0.9,0.1,2.7,0.3,3.6,0.3c2.4,0,10.6,0,12.3,0c0.6,0,1.7,0,2.6-0.3L197.6,86.9z
				 M206.2,104c0.4-0.8,0.4-1.4,0.4-2.1c0-2.3,0-11.3,0-14.7c0-1.2-0.2-2.6-0.4-3.5h5.3c-0.2,1.3-0.3,2.3-0.3,3.5
				c0,3.4,0,11.3,0,13.8c4.1-1.3,10.2-4.8,13.9-9.1l2.4,3.9c-3.9,4.6-9.8,7.9-16.2,10.1c-0.4,0.1-1.1,0.4-1.9,0.9L206.2,104z
				 M251,82c0.7,1,1.7,2.9,2.2,3.8l-2.7,1.1c-0.6-1.1-1.4-2.8-2.2-3.9L251,82z M254.4,80.7c0.7,1.1,1.7,2.9,2.2,3.8l-2.6,1.1
				c-0.6-1.1-1.5-2.8-2.2-3.9L254.4,80.7z M236.2,102c0-2.2,0-11.3,0-15c0-1-0.1-2.7-0.3-3.6h5c-0.1,0.9-0.3,2.5-0.3,3.6
				c0,3.6,0,10.5,0,13.8c0,1.7,0.4,2.2,3.3,2.2c2.8,0,6.1-0.4,8.9-1l-0.1,4.6c-2.2,0.3-5.9,0.6-8.6,0.6
				C237.1,107.3,236.2,105.6,236.2,102z M254.6,89.8c-0.3,0.4-0.8,1.2-1,1.7c-1.2,2.4-3.9,6.4-5.8,8.2l-3.7-2.2
				c1.7-1.5,3.4-3.8,4.2-5.1c-2.2,0.4-13.9,2.7-17.6,3.6l-0.8-4.4c3.9-0.5,16.4-2.9,19.2-3.6c0.9-0.2,1.7-0.4,2.3-0.8L254.6,89.8z
				 M264.1,83.5c1.9,1.3,5.6,4.2,7.3,6l-3.5,3.6c-1.5-1.6-5-4.7-7-6.1L264.1,83.5z M259.9,102.1c4.1-0.6,7.7-1.8,10.5-3.4
				c5-2.9,8.8-7.3,10.7-11.2l2.6,4.8c-2.2,4-6.2,7.9-10.9,10.6c-2.9,1.7-6.5,3.1-10,3.7L259.9,102.1z M293.5,102.5
				c0-2.5,0-13.6,0-16c0-1.1-0.1-2.6-0.3-3.6h5.3c-0.1,1.1-0.3,2.3-0.3,3.6c0,2.4,0,13.5,0,16c0,0.8,0.2,3,0.3,4.2h-5.3
				C293.4,105.5,293.5,103.6,293.5,102.5z M297.2,90c3.8,1,10,3.2,12.6,4.5l-1.9,4.7c-3.2-1.6-7.6-3.3-10.6-4.3V90z M317.1,97.7
				l-0.7-9.5l-0.2-4.5h5l-0.2,4.5l-0.7,9.5H317.1z M318.7,105.6c-1.7,0-2.9-1.4-2.9-3.1s1.2-3.1,2.9-3.1c1.7,0,3,1.3,3,3.1
				S320.4,105.6,318.7,105.6z"/>
			
				<linearGradient id="SVGID_00000124143145642605424940000000041918295363446174_" gradientUnits="userSpaceOnUse" x1="110.5505" y1="36.6625" x2="123.0665" y2="45.2276" gradientTransform="matrix(1 0 0 -1 0 136)">
				<stop  offset="0" style="stop-color:#D79627"/>
				<stop  offset="0.4427" style="stop-color:#FFF89B"/>
				<stop  offset="1" style="stop-color:#FFC754"/>
			</linearGradient>
			<path style="fill:url(#SVGID_00000124143145642605424940000000041918295363446174_);" d="M111.9,105.3v-5.8h6.3V82.6h-5.5v-4.4
				c3.2-0.6,5.3-1.4,7.4-2.7h5.2v24h5.4v5.8H111.9z"/>
		</g>
	</g>
</g>
<g>
	
		<linearGradient id="SVGID_00000071518612818030608210000012790095495555139969_" gradientUnits="userSpaceOnUse" x1="371.2456" y1="93.2779" x2="324.5276" y2="81.4462" gradientTransform="matrix(1 0 0 -1 0 136)">
		<stop  offset="0" style="stop-color:#D79627"/>
		<stop  offset="0.665" style="stop-color:#FFF89B"/>
		<stop  offset="1" style="stop-color:#FFC754"/>
	</linearGradient>
	<path style="fill:url(#SVGID_00000071518612818030608210000012790095495555139969_);" d="M319.1,29.7c0-1.1,0.9-2,2-2h53.8
		c1.5,0,2.4,1.5,1.8,2.9l-8.1,17.2c-0.3,0.5-0.3,1.2,0,1.7l8.1,17.2c0.6,1.3-0.3,2.9-1.8,2.9h-53.8c-1.1,0-2-0.9-2-2V29.7z"/>
</g>
<g>
	
		<linearGradient id="SVGID_00000139268172058912202060000010050534036541467832_" gradientUnits="userSpaceOnUse" x1="51.2973" y1="88.6789" x2="4.3822" y2="79.247" gradientTransform="matrix(1 0 0 -1 0 136)">
		<stop  offset="0" style="stop-color:#D79627"/>
		<stop  offset="0.59" style="stop-color:#FFF89B"/>
		<stop  offset="1" style="stop-color:#FFC754"/>
	</linearGradient>
	<path style="fill:url(#SVGID_00000139268172058912202060000010050534036541467832_);" d="M72.9,69.5l-55.8,0
		c-1.5,0-2.4-1.5-1.8-2.9l8.1-17.2c0.3-0.5,0.3-1.2,0-1.7l-8.1-17.2c-0.6-1.3,0.3-2.9,1.8-2.9h55.8V69.5z"/>
</g>
<g>
	
		<linearGradient id="SVGID_00000009579982640869235950000001485506039345404054_" gradientUnits="userSpaceOnUse" x1="144.6725" y1="33.1146" x2="246.1029" y2="157.0196" gradientTransform="matrix(1 0 0 -1 0 136)">
		<stop  offset="0" style="stop-color:#D79627"/>
		<stop  offset="0.4427" style="stop-color:#FFF89B"/>
		<stop  offset="1" style="stop-color:#FFC754"/>
	</linearGradient>
	<path style="fill:url(#SVGID_00000009579982640869235950000001485506039345404054_);" d="M45.4,20h300c1.1,0,2,0.9,2,2v37.8
		c0,1.1-0.9,2-2,2h-300c-1.1,0-2-0.9-2-2V22C43.4,20.9,44.3,20,45.4,20z"/>
</g>
<path class="st6" d="M72.9,61.8H45.4l27.5,7.7V61.8z"/>
<path class="st6" d="M319.1,61.8h26.5l-26.5,7.7V61.8z"/>
<path class="st7" d="M77.5,35.3c1.1,0.1,2.5,0.2,4.2,0.2c1.5,0,3.3-0.1,4.5-0.2v2.4c-1.1,0.1-3,0.2-4.5,0.2c-1.6,0-2.9-0.1-4.2-0.2
	V35.3z M79.2,41.8c-0.1,0.5-0.2,0.9-0.2,1.4c0,0.9,0.8,1.5,2.8,1.5c2,0,3.9-0.2,5.3-0.6l0,2.6c-1.4,0.3-3.2,0.5-5.3,0.5
	c-3.7,0-5.4-1.2-5.4-3.4c0-0.9,0.2-1.7,0.3-2.2L79.2,41.8z M86.6,33.8c0.4,0.6,0.9,1.5,1.2,2.1l-1.4,0.6c-0.3-0.6-0.8-1.5-1.2-2.1
	L86.6,33.8z M88.4,33.1c0.4,0.6,0.9,1.5,1.2,2l-1.4,0.6c-0.3-0.6-0.8-1.5-1.2-2.1L88.4,33.1z M92.6,39.1h3.3v2h-3.3V39.1z
	 M95.1,39.1h2.1c0,0,0,0.5,0,0.8c0,3.1-0.1,4.4-0.5,4.9c-0.3,0.4-0.7,0.6-1.1,0.7c-0.4,0.1-1,0.1-1.7,0.1c0-0.6-0.3-1.5-0.6-2
	c0.5,0,0.9,0.1,1.1,0.1c0.2,0,0.3,0,0.5-0.2c0.2-0.2,0.2-1.2,0.2-4V39.1z M99.7,34.5l1.3-1.3c0.8,0.4,1.8,1.1,2.3,1.6l-1.4,1.5
	C101.5,35.7,100.5,35,99.7,34.5z M101.3,38.2l2.2,0.5c-1.2,3.9-3.4,7-6.4,8.9c-0.3-0.5-1.1-1.4-1.6-1.8
	C98.4,44.3,100.3,41.6,101.3,38.2z M92.7,35.5h11.6v2.1H92.7V35.5z M91.2,35.5h2.3V40c0,2.3-0.3,5.8-1.6,7.9
	c-0.4-0.4-1.4-1.2-1.9-1.5c1.1-1.8,1.2-4.4,1.2-6.4V35.5z M97.2,33.4h2.3c-0.2,5.7,1.2,11.9,2.5,11.9c0.3,0,0.5-0.8,0.6-2.6
	c0.5,0.5,1.3,1,1.8,1.2c-0.3,2.9-1,3.6-2.6,3.6C98.4,47.6,97.3,40.1,97.2,33.4z M112,40.4l1.7-0.9c0.8,1,1.6,2.4,1.9,3.3l-1.9,1
	C113.5,42.9,112.7,41.5,112,40.4z M112.7,35.9h5.2v2.1h-5.2V35.9z M117,35.9h2.1c0,0,0,0.7,0,1c-0.2,6.5-0.4,8.9-1,9.8
	c-0.5,0.6-0.9,0.8-1.6,1c-0.6,0.1-1.5,0.1-2.4,0.1c0-0.6-0.3-1.6-0.7-2.2c0.9,0.1,1.8,0.1,2.2,0.1c0.3,0,0.5-0.1,0.6-0.3
	c0.5-0.5,0.7-3.1,0.8-9V35.9z M112.6,33.4l2.3,0.5c-0.6,2.3-1.7,4.5-2.8,5.9c-0.4-0.4-1.4-1-1.9-1.3
	C111.2,37.3,112.1,35.4,112.6,33.4z M107.3,33.4l1.9,0.7c-0.6,1.2-1.3,2.5-1.9,3.4l-1.5-0.6C106.4,36,107,34.5,107.3,33.4z
	 M109.1,35.3L111,36c-1.1,1.7-2.6,3.8-3.8,5.1l-1.3-0.7C107,39,108.4,36.9,109.1,35.3z M105.1,37.2l1-1.5c0.8,0.7,1.7,1.6,2.1,2.3
	l-1.1,1.7C106.7,39,105.8,38,105.1,37.2z M108.8,39l1.5-0.7c0.6,1,1.2,2.3,1.3,3.2l-1.6,0.8C109.9,41.4,109.4,40,108.8,39z
	 M105.1,40c1.4,0,3.5-0.1,5.6-0.2l0,1.7c-1.9,0.2-3.9,0.3-5.4,0.4L105.1,40z M109,42.8l1.6-0.5c0.4,0.9,0.8,2.1,0.9,2.8l-1.7,0.6
	C109.7,44.9,109.4,43.7,109,42.8z M105.6,42.4l1.8,0.3c-0.1,1.4-0.4,3-0.8,3.9c-0.4-0.2-1.2-0.6-1.6-0.8
	C105.3,45,105.5,43.6,105.6,42.4z M107.4,41h1.9v6.7h-1.9V41z M120.5,37.8H134v1.9h-13.6V37.8z M121.8,34.9h8.5v1.9h-8.5V34.9z
	 M124.5,43.2h6.5v1.6h-6.5V43.2z M124.5,45.5h6.5v1.8h-6.5V45.5z M125.1,33.4h2.2v5.5h-2.2V33.4z M131.7,33.8l1.9,1
	c-2.9,4.2-7.5,7.2-12.4,9c-0.3-0.5-0.9-1.4-1.3-1.8C124.8,40.5,129.2,37.6,131.7,33.8z M123.3,40.7h9.1v6.9h-2.3v-5.1h-4.6v5.2h-2.2
	V40.7z M140.7,35h8.2v1.7h-8.2V35z M141.1,37h7.6v1.6h-7.6V37z M140.5,39h8.9v1.8h-8.9V39z M146.4,33.4l2.2,0.5
	c-0.4,0.7-0.8,1.3-1.1,1.7l-1.7-0.5C146,34.6,146.2,33.9,146.4,33.4z M141.6,34l1.7-0.6c0.3,0.5,0.7,1.2,0.8,1.6l-1.8,0.6
	C142.2,35.3,141.9,34.5,141.6,34z M147.7,40.9l1.6,1.2c-0.7,0.7-1.5,1.4-2.1,1.8l-1.4-1C146.4,42.3,147.2,41.5,147.7,40.9z
	 M140.6,41.9l1.5-1c0.5,0.5,1.2,1.3,1.5,1.8l-1.6,1.1C141.8,43.2,141.2,42.4,140.6,41.9z M139.9,44.9c0.9-0.4,2.1-1,3.4-1.6l0.6,1.8
	c-1,0.6-2.1,1.2-3,1.7L139.9,44.9z M143.9,36.1h2.1v9.5c0,0.9-0.2,1.4-0.7,1.7c-0.6,0.3-1.3,0.4-2.2,0.4c-0.1-0.6-0.3-1.4-0.6-1.9
	c0.4,0,1,0,1.1,0c0.2,0,0.2-0.1,0.2-0.2V36.1z M145.8,40.9c0.6,1.9,1.9,3.5,3.8,4.3c-0.4,0.4-1.1,1.2-1.4,1.8
	c-1.9-1.1-3.1-3.2-3.8-5.7L145.8,40.9z M135.4,36.5h5v2h-5V36.5z M137,33.4h2v14.2h-2V33.4z M137,37.9l1.2,0.4
	c-0.4,2.4-1.2,5.2-2.2,6.8c-0.2-0.6-0.6-1.4-0.9-1.9C135.9,41.9,136.7,39.7,137,37.9z M138.9,38.9c0.3,0.4,1.5,2.3,1.8,2.7l-1.1,1.5
	c-0.3-0.9-1.2-2.6-1.6-3.4L138.9,38.9z M157.5,36.8h4.9v1.8h-4.9V36.8z M154.8,45.3c1.4-0.2,3.4-0.5,5.4-0.8l0.2,1.9
	c-1.6,0.4-3.4,0.8-4.8,1.1L154.8,45.3z M156.3,34.1h2.1v11.8h-2.1V34.1z M157.5,34.1h5.9v7.2h-5.9v-1.9h3.8V36h-3.8V34.1z
	 M160.8,40.1c0.5,2.6,1.5,4.8,3.7,5.7c-0.5,0.4-1.1,1.3-1.4,1.8c-2.5-1.3-3.5-3.9-4.1-7.3L160.8,40.1z M162.5,41.3l1.7,1.2
	c-0.8,0.8-1.7,1.6-2.4,2.1l-1.4-1C161.1,43,162,42,162.5,41.3z M150.8,34.1h3.7V36h-1.7v11.7h-2V34.1z M153.9,34.1h0.4l0.3-0.1
	l1.5,0.8c-0.4,1.3-0.9,3.1-1.3,4.2c0.9,1.1,1,2.1,1,3c0,1.1-0.2,1.7-0.8,2.1c-0.3,0.2-0.6,0.3-0.9,0.4c-0.3,0-0.6,0-1,0
	c0-0.6-0.2-1.4-0.5-1.9c0.2,0,0.4,0,0.5,0s0.3,0,0.4-0.1c0.2-0.1,0.2-0.4,0.2-0.8c0-0.6-0.2-1.5-0.9-2.5c0.4-1.3,0.8-3.6,1-4.6V34.1
	z M168.2,37.9h8V40h-8V37.9z M172.3,41.5h5.1v2h-5.1V41.5z M171.1,39.2h2.3v7l-2.3-0.3V39.2z M167.5,40.6l2.3,0.2
	c-0.4,3.1-1.3,5.5-3,7c-0.4-0.4-1.3-1.2-1.8-1.5C166.6,45.1,167.3,43.1,167.5,40.6z M169.4,42.4c0.9,2.6,2.9,2.9,5.3,3
	c0.9,0,3.4,0,4.6,0c-0.3,0.5-0.7,1.6-0.8,2.2h-3.9c-3.4,0-5.7-0.7-7-4.6L169.4,42.4z M171.1,33.5h2.3v2.9h-2.3V33.5z M165.7,34.9
	h13.1v4h-2.2v-2h-8.7v2h-2.1V34.9z M181.9,42.2l-0.4-5.1l-0.1-2.4h2.7l-0.1,2.4l-0.4,5.1H181.9z M182.7,46.5c-0.9,0-1.6-0.7-1.6-1.7
	s0.7-1.6,1.6-1.6c0.9,0,1.6,0.7,1.6,1.6S183.7,46.5,182.7,46.5z M193.4,46.5c-1.8,0-3-0.7-3.9-1.5l1.2-1.7c0.6,0.6,1.4,1.1,2.3,1.1
	c1.1,0,1.8-0.6,1.8-1.7c0-1.1-0.7-1.7-1.6-1.7c-0.6,0-0.9,0.1-1.6,0.5l-1.2-0.8l0.3-5.5h6.3v2.2h-4l-0.2,1.9
	c0.4-0.2,0.7-0.2,1.2-0.2c1.9,0,3.5,1.1,3.5,3.5C197.5,45,195.6,46.5,193.4,46.5z M204.6,33.4h2.2v5.3h-2.2V33.4z M202.6,39.8v1.5
	h6.4v-1.5H202.6z M200.5,37.8h10.7v5.5h-10.7V37.8z M205.7,34.6h6.4v2h-6.4V34.6z M202.9,44.3l2.1-0.2c0.2,1,0.4,2.4,0.4,3.2
	l-2.2,0.3C203.2,46.8,203.1,45.4,202.9,44.3z M206,44.4l2-0.4c0.4,1,1,2.2,1.2,3.1l-2.1,0.5C206.9,46.7,206.4,45.4,206,44.4z
	 M209,44.3l2-0.7c0.7,1,1.6,2.3,1.9,3.2l-2.1,0.8C210.5,46.7,209.7,45.3,209,44.3z M200.4,43.7l2.1,0.5c-0.4,1.2-1.1,2.5-1.9,3.4
	l-2-1C199.3,46,200,44.8,200.4,43.7z M218.4,36.1l2-1c1,1.1,1.9,2.6,2.4,3.6l-2.1,1.2C220.3,38.9,219.3,37.3,218.4,36.1z
	 M213.6,43.6c1.5-0.5,3.9-1.4,6.1-2.3l0.5,2.1c-1.9,0.9-4.1,1.8-5.8,2.5L213.6,43.6z M222.3,42.6l1.7-1.6c1.3,1.4,3.3,3.5,4.1,4.8
	l-1.9,1.8C225.5,46.3,223.6,44.2,222.3,42.6z M224.3,34.3l2.4,0.2c-0.7,6.7-2.5,10.9-7.3,13.1c-0.3-0.5-1.2-1.5-1.7-2
	C222.3,44,223.8,40.3,224.3,34.3z M215.2,34.4l2.3-0.1l0.4,9.7l-2.3,0.1L215.2,34.4z M235.4,37.7h6.3v2.2h-6.3V37.7z M228.9,44.7
	h13.8v2.2h-13.8V44.7z M234.1,33.6h2.4V46h-2.4V33.6z M246.1,39.1h3.3v2h-3.3V39.1z M248.6,39.1h2.1c0,0,0,0.5,0,0.8
	c0,3.1-0.1,4.4-0.5,4.9c-0.3,0.4-0.7,0.6-1.1,0.7c-0.4,0.1-1,0.1-1.7,0.1c0-0.6-0.3-1.5-0.6-2c0.5,0,0.9,0.1,1.1,0.1
	c0.2,0,0.3,0,0.4-0.2c0.2-0.2,0.2-1.2,0.2-4V39.1z M253.3,34.5l1.3-1.3c0.8,0.4,1.8,1.1,2.3,1.6l-1.4,1.5
	C255.1,35.7,254,35,253.3,34.5z M254.8,38.2l2.2,0.5c-1.2,3.9-3.4,7-6.4,8.9c-0.3-0.5-1.1-1.4-1.6-1.8
	C251.9,44.3,253.9,41.6,254.8,38.2z M246.2,35.5h11.5v2.1h-11.5V35.5z M244.7,35.5h2.3V40c0,2.3-0.3,5.8-1.6,7.9
	c-0.4-0.4-1.4-1.2-1.9-1.5c1.1-1.8,1.2-4.4,1.2-6.4V35.5z M250.8,33.4h2.3c-0.1,5.7,1.2,11.9,2.5,11.9c0.3,0,0.5-0.8,0.6-2.6
	c0.5,0.5,1.3,1,1.8,1.2c-0.3,2.9-1,3.6-2.6,3.6C251.9,47.6,250.8,40.1,250.8,33.4z M265.5,40.4l1.7-0.9c0.8,1,1.6,2.4,1.9,3.3
	l-1.9,1C267,42.9,266.3,41.5,265.5,40.4z M266.3,35.9h5.2v2.1h-5.2V35.9z M270.5,35.9h2.1c0,0,0,0.7,0,1c-0.2,6.5-0.4,8.9-1,9.8
	c-0.5,0.6-0.9,0.8-1.6,1c-0.6,0.1-1.5,0.1-2.4,0.1c0-0.6-0.3-1.6-0.7-2.2c0.9,0.1,1.8,0.1,2.2,0.1c0.3,0,0.5-0.1,0.6-0.3
	c0.5-0.5,0.7-3.1,0.8-9V35.9z M266.1,33.4l2.3,0.5c-0.6,2.3-1.7,4.5-2.8,5.9c-0.4-0.4-1.4-1-1.9-1.3
	C264.7,37.3,265.6,35.4,266.1,33.4z M260.9,33.4l1.9,0.7c-0.6,1.2-1.3,2.5-1.9,3.4l-1.5-0.6C259.9,36,260.6,34.5,260.9,33.4z
	 M262.7,35.3l1.8,0.8c-1.1,1.7-2.6,3.8-3.8,5.1l-1.3-0.7C260.6,39,261.9,36.9,262.7,35.3z M258.6,37.2l1-1.5
	c0.8,0.7,1.7,1.6,2.1,2.3l-1.1,1.7C260.2,39,259.3,38,258.6,37.2z M262.4,39l1.5-0.7c0.6,1,1.2,2.3,1.3,3.2l-1.6,0.8
	C263.4,41.4,262.9,40,262.4,39z M258.6,40c1.4,0,3.5-0.1,5.6-0.2l0,1.7c-1.9,0.2-3.9,0.3-5.4,0.4L258.6,40z M262.6,42.8l1.6-0.5
	c0.4,0.9,0.8,2.1,0.9,2.8l-1.7,0.6C263.3,44.9,262.9,43.7,262.6,42.8z M259.1,42.4l1.8,0.3c-0.1,1.4-0.4,3-0.8,3.9
	c-0.4-0.2-1.2-0.6-1.6-0.8C258.8,45,259,43.6,259.1,42.4z M260.9,41h1.9v6.7h-1.9V41z M283.3,34c0,0.3-0.1,1.2-0.1,1.5
	c0,1,0,4.1,0,5.3l-2.3-0.7c0-1.1,0-3.9-0.1-4.7c-0.1-0.7-0.1-1.3-0.2-1.5H283.3z M274.5,35.8c2.4,0,6.4-0.1,8.1-0.1
	c1.4,0,3.9,0,4.8,0l0,2.1c-1,0-2.6-0.1-4.8-0.1c-2.8,0-5.7,0.1-7.9,0.2L274.5,35.8z M282.8,40.3c0,2.7-0.9,4-2.8,4
	c-1.1,0-2.7-0.9-2.7-2.9c0-1.8,1.5-2.9,3.2-2.9c2.1,0,3.2,1.6,3.2,3.5c0,1.9-1.2,4.5-5,5.5l-1.9-1.9c2.4-0.5,4.7-1.3,4.7-4
	c0-0.8-0.4-1.2-1-1.2c-0.5,0-1,0.3-1,1c0,0.5,0.5,0.9,1,0.9c0.6,0,1.2-0.5,0.6-2.4L282.8,40.3z M291.4,34.6c0.5,0.1,1,0.1,1.5,0.1
	c0.8,0,3.8,0,4.7-0.1c0.7-0.1,1.1-0.1,1.3-0.2l1.1,1.6c-0.4,0.2-0.8,0.5-1.2,0.7c-0.8,0.6-2.2,1.7-3,2.3c0.4-0.1,0.7-0.1,1.1-0.1
	c2.6,0,4.6,1.6,4.6,3.9c0,2.3-1.7,4.4-5.6,4.4c-2.1,0-3.9-1-3.9-2.6c0-1.3,1.2-2.5,2.9-2.5c2.1,0,3.3,1.4,3.3,3.1l-2.1,0.3
	c0-1-0.5-1.6-1.2-1.6c-0.5,0-0.8,0.3-0.8,0.6c0,0.5,0.5,0.8,1.3,0.8c2.5,0,3.6-0.9,3.6-2.4c0-1.3-1.3-2.1-3-2.1
	c-2.2,0-3.8,1.3-5.2,3.1l-1.7-1.7c1-0.8,2.7-2.2,3.6-3c0.8-0.7,2.2-1.8,3-2.4c-0.8,0-2.3,0.1-3.1,0.1c-0.5,0-1,0.1-1.4,0.1
	L291.4,34.6z M316,37.6c-0.5,0.3-1.1,0.6-1.7,0.9c-0.9,0.4-2.7,1.2-4,2.1c-1.2,0.8-2,1.6-2,2.6c0,1,1,1.5,2.9,1.5
	c1.5,0,3.5-0.3,5-0.6l0,2.6c-1.4,0.2-2.9,0.4-4.9,0.4c-3.1,0-5.5-0.8-5.5-3.6c0-2.1,1.6-3.4,3.3-4.6c1.4-0.9,3.1-1.8,4-2.3
	c0.6-0.4,1.1-0.7,1.6-1L316,37.6z M308.4,34.1c0.8,2,1.7,3.8,2.4,5.1l-2.1,1.2c-0.9-1.4-1.8-3.4-2.6-5.4L308.4,34.1z"/>
</svg>
