<?xml version="1.0" encoding="UTF-8"?>
<svg id="_レイヤー_1" data-name="レイヤー 1" xmlns="http://www.w3.org/2000/svg" xmlns:xlink="http://www.w3.org/1999/xlink" viewBox="0 0 75 75">
  <defs>
    <style>
      .cls-1 {
        fill: url(#_名称未設定グラデーション_712);
      }

      .cls-1, .cls-2, .cls-3, .cls-4 {
        stroke-width: 0px;
      }

      .cls-2 {
        fill: url(#_金);
      }

      .cls-2, .cls-3, .cls-4 {
        fill-rule: evenodd;
      }

      .cls-3 {
        fill: url(#_金-2);
      }

      .cls-5 {
        fill: none;
        stroke: #333;
        stroke-linecap: round;
        stroke-linejoin: round;
        stroke-width: 3.34px;
      }

      .cls-4 {
        fill: url(#_金-3);
      }
    </style>
    <linearGradient id="_金" data-name="金" x1="38.74" y1="24.95" x2="61.81" y2="11.63" gradientUnits="userSpaceOnUse">
      <stop offset="0" stop-color="#b67715"/>
      <stop offset=".22" stop-color="#ffc754"/>
      <stop offset=".41" stop-color="#fff89b"/>
      <stop offset=".59" stop-color="#b67715"/>
      <stop offset=".81" stop-color="#ffc754"/>
      <stop offset="1" stop-color="#fff89b"/>
    </linearGradient>
    <linearGradient id="_金-2" data-name="金" x1="11.4" y1="21.62" x2="27.61" y2="12.26" xlink:href="#_金"/>
    <linearGradient id="_金-3" data-name="金" x1="10.89" y1="61.8" x2="69.36" y2="28.04" xlink:href="#_金"/>
    <linearGradient id="_名称未設定グラデーション_712" data-name="名称未設定グラデーション 712" x1="-86.76" y1="84.91" x2="56.39" y2="2.25" gradientUnits="userSpaceOnUse">
      <stop offset="0" stop-color="#f1db00"/>
      <stop offset=".29" stop-color="#ffbc00"/>
      <stop offset=".65" stop-color="#ffffb1"/>
      <stop offset="1" stop-color="#fb0"/>
    </linearGradient>
  </defs>
  <g>
    <path class="cls-2" d="M50.42,12.35c4.39-.38,8.61.18,12.67,1.69,1.54,1.87,1.54,3.75,0,5.62-5.7,1.3-11.46,2.24-17.28,2.81-3.5.09-6.77-.66-9.79-2.25-.71-1.07-.52-2.01.58-2.81,4.74-1.7,9.34-3.39,13.83-5.06Z"/>
    <path class="cls-3" d="M13.55,10.1c6.78-.37,12.35,1.88,16.71,6.75.9,1.62.71,3.12-.58,4.5-6.26.71-12.4.71-18.44,0,1.54-1.5,3.07-3,4.61-4.5-1.44-2.05-2.21-4.3-2.3-6.75Z"/>
    <path class="cls-4" d="M68.86,42.16c-5.07-2.3-10.45-3.43-16.13-3.37,7.13-1.17,12.51-4.73,16.13-10.69-.12-1.06-.51-2-1.15-2.81-4.27-2.4-8.88-3.34-13.83-2.81-6.54,1.63-13.07,3.5-19.59,5.62-1.23,3.5-3.34,6.5-6.34,9,.47-3.51,1.24-6.88,2.3-10.12-2.14-1.42-4.45-2.55-6.91-3.37-6.03,3.9-12.75,6.15-20.16,6.75-.17,1.18.02,2.31.58,3.37,3.21,4.04,7.24,5.36,12.1,3.94-2.84,3.9-6.1,7.46-9.79,10.69-.71,2.85-.13,5.48,1.73,7.87,3.14,1.62,5.64.87,7.49-2.25.29,3.66,1.44,7.04,3.46,10.12,1.66,1.86,3.78,2.61,6.34,2.25-1-6.4-1-12.78,0-19.12,4.35-3.87,7.81-8.37,10.37-13.5,2.09,1.48,4.01,3.17,5.76,5.06-4.45,2.36-8.68,4.98-12.67,7.87,2.17,4.66,4.28,9.35,6.34,14.06,2.17,2.84,5.05,4.34,8.64,4.5v-3.37c4.67-.36,9.28.01,13.83,1.12.79,3.94,3.09,5.25,6.91,3.94,3.45-5.75,5.95-11.94,7.49-18.56.78-2.79-.18-4.85-2.88-6.19ZM42.36,56.22c-1.02-.93-1.4-2.05-1.15-3.37,3.98.19,4.37,1.31,1.15,3.37ZM44.66,49.47c-3.94.42-6.63-1.08-8.07-4.5,2.61.81,5.3,1.18,8.07,1.13v3.37ZM44.66,33.16c-.87-.75-1.25-1.69-1.15-2.81,3.86-.19,7.7,0,11.52.56-3.24,1.94-6.7,2.69-10.37,2.25ZM58.49,56.22c-1.65-.54-3.18-1.29-4.61-2.25,2.32-.64,4.24-1.76,5.76-3.37-2.45-1.88-4.76-3.75-6.91-5.62,8.19.31,10.12,4.06,5.76,11.25Z"/>
  </g>
  <g>
    <path class="cls-5" d="M50.42,12.35c4.39-.38,8.61.18,12.67,1.69,1.54,1.87,1.54,3.75,0,5.62-5.7,1.3-11.46,2.24-17.28,2.81-3.5.09-6.77-.66-9.79-2.25-.71-1.07-.52-2.01.58-2.81,4.74-1.7,9.34-3.39,13.83-5.06Z"/>
    <path class="cls-5" d="M13.55,10.1c6.78-.37,12.35,1.88,16.71,6.75.9,1.62.71,3.12-.58,4.5-6.26.71-12.4.71-18.44,0,1.54-1.5,3.07-3,4.61-4.5-1.44-2.05-2.21-4.3-2.3-6.75Z"/>
    <path class="cls-5" d="M68.86,42.16c-5.07-2.3-10.45-3.43-16.13-3.37,7.13-1.17,12.51-4.73,16.13-10.69-.12-1.06-.51-2-1.15-2.81-4.27-2.4-8.88-3.34-13.83-2.81-6.54,1.63-13.07,3.5-19.59,5.62-1.23,3.5-3.34,6.5-6.34,9,.47-3.51,1.24-6.88,2.3-10.12-2.14-1.42-4.45-2.55-6.91-3.37-6.03,3.9-12.75,6.15-20.16,6.75-.17,1.18.02,2.31.58,3.37,3.21,4.04,7.24,5.36,12.1,3.94-2.84,3.9-6.1,7.46-9.79,10.69-.71,2.85-.13,5.48,1.73,7.87,3.14,1.62,5.64.87,7.49-2.25.29,3.66,1.44,7.04,3.46,10.12,1.66,1.86,3.78,2.61,6.34,2.25-1-6.4-1-12.78,0-19.12,4.35-3.87,7.81-8.37,10.37-13.5,2.09,1.48,4.01,3.17,5.76,5.06-4.45,2.36-8.68,4.98-12.67,7.87,2.17,4.66,4.28,9.35,6.34,14.06,2.17,2.84,5.05,4.34,8.64,4.5v-3.37c4.67-.36,9.28.01,13.83,1.12.79,3.94,3.09,5.25,6.91,3.94,3.45-5.75,5.95-11.94,7.49-18.56.78-2.79-.18-4.85-2.88-6.19ZM42.36,56.22c-1.02-.93-1.4-2.05-1.15-3.37,3.98.19,4.37,1.31,1.15,3.37ZM44.66,49.47c-3.94.42-6.63-1.08-8.07-4.5,2.61.81,5.3,1.18,8.07,1.13v3.37ZM44.66,33.16c-.87-.75-1.25-1.69-1.15-2.81,3.86-.19,7.7,0,11.52.56-3.24,1.94-6.7,2.69-10.37,2.25ZM58.49,56.22c-1.65-.54-3.18-1.29-4.61-2.25,2.32-.64,4.24-1.76,5.76-3.37-2.45-1.88-4.76-3.75-6.91-5.62,8.19.31,10.12,4.06,5.76,11.25Z"/>
  </g>
  <g>
    <path class="cls-1" d="M50.42,12.35c4.39-.38,8.61.18,12.67,1.69,1.54,1.87,1.54,3.75,0,5.62-5.7,1.3-11.46,2.24-17.28,2.81-3.5.09-6.77-.66-9.79-2.25-.71-1.07-.52-2.01.58-2.81,4.74-1.7,9.34-3.39,13.83-5.06Z"/>
    <path class="cls-1" d="M13.55,10.1c6.78-.37,12.35,1.88,16.71,6.75.9,1.62.71,3.12-.58,4.5-6.26.71-12.4.71-18.44,0,1.54-1.5,3.07-3,4.61-4.5-1.44-2.05-2.21-4.3-2.3-6.75Z"/>
    <path class="cls-1" d="M68.86,42.16c-5.07-2.3-10.45-3.43-16.13-3.37,7.13-1.17,12.51-4.73,16.13-10.69-.12-1.06-.51-2-1.15-2.81-4.27-2.4-8.88-3.34-13.83-2.81-6.54,1.63-13.07,3.5-19.59,5.62-1.23,3.5-3.34,6.5-6.34,9,.47-3.51,1.24-6.88,2.3-10.12-2.14-1.42-4.45-2.55-6.91-3.37-6.03,3.9-12.75,6.15-20.16,6.75-.17,1.18.02,2.31.58,3.37,3.21,4.04,7.24,5.36,12.1,3.94-2.84,3.9-6.1,7.46-9.79,10.69-.71,2.85-.13,5.48,1.73,7.87,3.14,1.62,5.64.87,7.49-2.25.29,3.66,1.44,7.04,3.46,10.12,1.66,1.86,3.78,2.61,6.34,2.25-1-6.4-1-12.78,0-19.12,4.35-3.87,7.81-8.37,10.37-13.5,2.09,1.48,4.01,3.17,5.76,5.06-4.45,2.36-8.68,4.98-12.67,7.87,2.17,4.66,4.28,9.35,6.34,14.06,2.17,2.84,5.05,4.34,8.64,4.5v-3.37c4.67-.36,9.28.01,13.83,1.12.79,3.94,3.09,5.25,6.91,3.94,3.45-5.75,5.95-11.94,7.49-18.56.78-2.79-.18-4.85-2.88-6.19ZM42.36,56.22c-1.02-.93-1.4-2.05-1.15-3.37,3.98.19,4.37,1.31,1.15,3.37ZM44.66,49.47c-3.94.42-6.63-1.08-8.07-4.5,2.61.81,5.3,1.18,8.07,1.13v3.37ZM44.66,33.16c-.87-.75-1.25-1.69-1.15-2.81,3.86-.19,7.7,0,11.52.56-3.24,1.94-6.7,2.69-10.37,2.25ZM58.49,56.22c-1.65-.54-3.18-1.29-4.61-2.25,2.32-.64,4.24-1.76,5.76-3.37-2.45-1.88-4.76-3.75-6.91-5.62,8.19.31,10.12,4.06,5.76,11.25Z"/>
  </g>
</svg>