<?xml version="1.0" encoding="UTF-8"?>
<svg id="_レイヤー_1" data-name="レイヤー 1" xmlns="http://www.w3.org/2000/svg" xmlns:xlink="http://www.w3.org/1999/xlink" viewBox="0 0 175 90.8">
  <defs>
    <style>
      .cls-1 {
        fill: url(#_金-4);
      }

      .cls-1, .cls-2, .cls-3, .cls-4, .cls-5, .cls-6, .cls-7, .cls-8, .cls-9 {
        stroke-width: 0px;
      }

      .cls-1, .cls-2, .cls-3, .cls-6, .cls-7, .cls-8, .cls-9 {
        fill-rule: evenodd;
      }

      .cls-2 {
        fill: url(#_金-6);
      }

      .cls-3 {
        fill: url(#_金-5);
      }

      .cls-4 {
        fill: #fff;
      }

      .cls-5 {
        fill: url(#_名称未設定グラデーション_712);
      }

      .cls-6 {
        fill: url(#_金);
      }

      .cls-7 {
        fill: url(#_金-2);
      }

      .cls-10 {
        fill: none;
        stroke: #333;
        stroke-linecap: round;
        stroke-linejoin: round;
        stroke-width: 3.34px;
      }

      .cls-8 {
        fill: url(#_金-7);
      }

      .cls-9 {
        fill: url(#_金-3);
      }
    </style>
    <linearGradient id="_金" data-name="金" x1="141.74" y1="48.35" x2="164.81" y2="35.03" gradientUnits="userSpaceOnUse">
      <stop offset="0" stop-color="#b67715"/>
      <stop offset=".22" stop-color="#ffc754"/>
      <stop offset=".41" stop-color="#fff89b"/>
      <stop offset=".59" stop-color="#b67715"/>
      <stop offset=".81" stop-color="#ffc754"/>
      <stop offset="1" stop-color="#fff89b"/>
    </linearGradient>
    <linearGradient id="_金-2" data-name="金" x1="114.4" y1="45.02" x2="130.61" y2="35.66" xlink:href="#_金"/>
    <linearGradient id="_金-3" data-name="金" x1="20.16" y1="49.44" x2="37.88" y2="39.2" xlink:href="#_金"/>
    <linearGradient id="_金-4" data-name="金" x1="72.08" y1="71.66" x2="103.99" y2="53.24" xlink:href="#_金"/>
    <linearGradient id="_金-5" data-name="金" x1="40.77" y1="77.53" x2="57.3" y2="67.98" xlink:href="#_金"/>
    <linearGradient id="_金-6" data-name="金" x1="113.89" y1="85.2" x2="172.36" y2="51.44" xlink:href="#_金"/>
    <linearGradient id="_金-7" data-name="金" x1="2.61" y1="84.7" x2="36.44" y2="65.16" xlink:href="#_金"/>
    <linearGradient id="_名称未設定グラデーション_712" data-name="名称未設定グラデーション 712" x1="16.24" y1="108.31" x2="159.39" y2="25.65" gradientUnits="userSpaceOnUse">
      <stop offset="0" stop-color="#f1db00"/>
      <stop offset=".29" stop-color="#ffbc00"/>
      <stop offset=".65" stop-color="#ffffb1"/>
      <stop offset="1" stop-color="#fb0"/>
    </linearGradient>
  </defs>
  <g>
    <g>
      <path class="cls-4" d="M48.16,19.13c1.76.34,3.59.77,5.43,1.44l.07.22-1.81,2.14-.22.07c-2.46-.84-5.21-1.59-7.77-2.07l-.07-.17,1.57-1.66h-6.15l1.76,1.49-.02.22c-2.24.91-5.3,1.81-7.89,2.17-.36.05-.58.02-.75-.22l-1.52-2.14c2.53-.31,4.78-.87,6.73-1.52l-3.06.07-.17-.22.15-3.39v-4.57l-.07-2.91.17-.22,3.01.07h9.5l3.01-.07.17.22-.07,2.91v4.57l.07,3.37-.17.24-1.9-.05ZM52.6.94l.19.19-.07,2.09v1.11l.07,2.6-.19.17-3.66-.07h-13.36l-3.69.07-.17-.17.07-2.6v-1.11l-.07-2.14.17-.14,3.69.07h13.36l3.66-.07ZM35.16,3.37v1.35h2.44v-1.35h-2.44ZM46.67,11.09v-.94h-8.85v.94h8.85ZM46.67,13.98v-.94h-8.85v.94h8.85ZM37.82,16.89h8.85v-.96h-8.85v.96ZM43.39,3.37h-2.48v1.35h2.48v-1.35ZM49.25,4.72v-1.35h-2.56v1.35h2.56Z"/>
      <path class="cls-4" d="M65.78,23.08h-3.42l.07-5.15c-1.83.51-4.03,1.03-6.44,1.59l-.22-.12-.82-2.86.12-.22c.63-.1,1.23-.19,1.83-.29V3.47l-1.57.05-.17-.17V.7l.22-.12,2.75.07h6.29l3.04-.07.17.17v2.5l2.51.05h3.5l2.12-.1,1.23,1.25c.12.12.14.39.1.77-.72,5.17-1.45,7.99-3.23,11.21,1.16,1.23,2.58,2.26,4.34,3.2l-1.98,2.79c-.1.14-.19.22-.29.22-.12,0-.24-.05-.41-.17-1.49-1.03-2.72-2.07-3.74-3.2-1.08,1.32-2.15,2.31-3.81,3.49-.1.07-.17.1-.24.1-.1,0-.19-.07-.36-.26l-1.62-1.83.02,2.31ZM62.48,5.51v-2.07h-2.53v2.07h2.53ZM59.95,8.16v2.14h2.53v-2.14h-2.53ZM59.95,12.95v2.55c.84-.17,1.69-.34,2.53-.53v-2.02h-2.53ZM65.73,20.16c.84-.55,1.64-1.16,2.39-1.85.6-.55,1.13-1.16,1.64-1.78-1.4-2.41-2.19-5.29-2.72-9.14l.17-.17,2.87-.39.22.12c.17,2.5.65,4.57,1.45,6.33.87-2.09,1.28-4.21,1.69-7.05h-3.28l-3.47.07-.17-.17v-2.65l-.84-.02v11.14l.07,5.56Z"/>
      <path class="cls-4" d="M88.64,4.33h-5.67l-3.38.07-.17-.19V1.78l.19-.14,3.35.07h5.67V.14l.12-.14h3.11l.15.14v1.56h5.86l3.4-.07.17.17v2.43l-.17.17-3.4-.07h-5.86v.99h3.38l3.33-.05.19.17-.07,2.53v2.89l.07,3.39-.22.14-2.31-.05v.96h1.93l3.4-.07.17.17v2.55l-.17.17-3.4-.07h-1.91l.1,2.6c0,1.88-1.09,2.36-4.51,2.36-.36,0-.51-.05-.63-.29l-1.25-2.58c1.01.02,1.91,0,2.39-.02.43-.02.58-.19.58-.77v-1.3h-5.93c.84.67,1.71,1.42,2.22,1.95l-.02.24-2.41,1.93h-.24c-.65-.84-1.81-2-2.68-2.67l.02-.24,1.71-1.2h-3.06l-3.38.07-.17-.19v-2.55l.19-.14,3.35.07h10.39v-.99h-7.48l-3.38.07-.17-.14.07-3.27v-3.13l-.07-2.45.17-.12,3.5.05h2.92v-.99ZM88.64,7.6h-3.35v1.03h3.35v-1.03ZM85.28,10.9v1.06h3.35v-1.06h-3.35ZM95.53,8.64v-1.03h-3.52v1.03h3.52ZM92.01,11.96h3.52v-1.06h-3.52v1.06Z"/>
      <path class="cls-4" d="M110.86.79l2.56-.07.17.17-.07,2.79v4.02l.07,2.7-.19.22-2.56-.07h-3.62v12.49h-3.21l.12-8.18V4.09l-.07-3.2.15-.17,2.58.07h4.08ZM110.5,4.52v-1.23h-3.28v1.23h3.28ZM107.22,7.99h3.28v-1.3h-3.28v1.3ZM117.93,10.54l-2.56.07-.19-.22.07-2.7V3.68l-.07-2.79.17-.17,2.56.07h4.41l2.58-.07.14.17-.07,3.2v9.1l.12,6.88c0,2.07-1.33,2.79-4.08,2.79h-.72c-.48,0-.58-.12-.67-.36l-1.04-2.86c.89,0,2.12-.02,2.82-.1.29-.05.34-.14.34-.72v-8.28h-3.81ZM121.74,4.52v-1.23h-3.42v1.23h3.42ZM118.31,7.99h3.42v-1.3h-3.42v1.3Z"/>
      <path class="cls-4" d="M137.55.17l.17-.17h3.23l.17.17v2.45h4.51l4-.07.17.17v2.7l-.17.17-4-.07h-13.26v5.2c0,5.54-.89,9.1-2.75,11.89-.1.14-.17.19-.26.19s-.19-.05-.29-.14l-2.24-2.09c1.52-2.77,2.14-5.22,2.14-9.79v-4.12l-.07-3.92.17-.17,4,.07h4.49V.17ZM136.68,21.7v1.3h-3.47l.12-4.43v-2.17l-.07-2.74.17-.17,3.47.07h1.3v-7.39l.12-.14h3.21l.15.14v2.09h4.29l2.94-.07.14.12v2.74l-.17.17-2.92-.07h-4.29v2.41h2.6l3.45-.07.17.17-.07,2.74v1.81l.12,4.55h-3.57v-1.06h-7.69ZM144.37,16.34h-7.69v2.55h7.69v-2.55Z"/>
    </g>
    <g>
      <path class="cls-4" d="M48.16,19.13c1.76.34,3.59.77,5.43,1.44l.07.22-1.81,2.14-.22.07c-2.46-.84-5.21-1.59-7.77-2.07l-.07-.17,1.57-1.66h-6.15l1.76,1.49-.02.22c-2.24.91-5.3,1.81-7.89,2.17-.36.05-.58.02-.75-.22l-1.52-2.14c2.53-.31,4.78-.87,6.73-1.52l-3.06.07-.17-.22.15-3.39v-4.57l-.07-2.91.17-.22,3.01.07h9.5l3.01-.07.17.22-.07,2.91v4.57l.07,3.37-.17.24-1.9-.05ZM52.6.94l.19.19-.07,2.09v1.11l.07,2.6-.19.17-3.66-.07h-13.36l-3.69.07-.17-.17.07-2.6v-1.11l-.07-2.14.17-.14,3.69.07h13.36l3.66-.07ZM35.16,3.37v1.35h2.44v-1.35h-2.44ZM46.67,11.09v-.94h-8.85v.94h8.85ZM46.67,13.98v-.94h-8.85v.94h8.85ZM37.82,16.89h8.85v-.96h-8.85v.96ZM43.39,3.37h-2.48v1.35h2.48v-1.35ZM49.25,4.72v-1.35h-2.56v1.35h2.56Z"/>
      <path class="cls-4" d="M65.78,23.08h-3.42l.07-5.15c-1.83.51-4.03,1.03-6.44,1.59l-.22-.12-.82-2.86.12-.22c.63-.1,1.23-.19,1.83-.29V3.47l-1.57.05-.17-.17V.7l.22-.12,2.75.07h6.29l3.04-.07.17.17v2.5l2.51.05h3.5l2.12-.1,1.23,1.25c.12.12.14.39.1.77-.72,5.17-1.45,7.99-3.23,11.21,1.16,1.23,2.58,2.26,4.34,3.2l-1.98,2.79c-.1.14-.19.22-.29.22-.12,0-.24-.05-.41-.17-1.49-1.03-2.72-2.07-3.74-3.2-1.08,1.32-2.15,2.31-3.81,3.49-.1.07-.17.1-.24.1-.1,0-.19-.07-.36-.26l-1.62-1.83.02,2.31ZM62.48,5.51v-2.07h-2.53v2.07h2.53ZM59.95,8.16v2.14h2.53v-2.14h-2.53ZM59.95,12.95v2.55c.84-.17,1.69-.34,2.53-.53v-2.02h-2.53ZM65.73,20.16c.84-.55,1.64-1.16,2.39-1.85.6-.55,1.13-1.16,1.64-1.78-1.4-2.41-2.19-5.29-2.72-9.14l.17-.17,2.87-.39.22.12c.17,2.5.65,4.57,1.45,6.33.87-2.09,1.28-4.21,1.69-7.05h-3.28l-3.47.07-.17-.17v-2.65l-.84-.02v11.14l.07,5.56Z"/>
      <path class="cls-4" d="M88.64,4.33h-5.67l-3.38.07-.17-.19V1.78l.19-.14,3.35.07h5.67V.14l.12-.14h3.11l.15.14v1.56h5.86l3.4-.07.17.17v2.43l-.17.17-3.4-.07h-5.86v.99h3.38l3.33-.05.19.17-.07,2.53v2.89l.07,3.39-.22.14-2.31-.05v.96h1.93l3.4-.07.17.17v2.55l-.17.17-3.4-.07h-1.91l.1,2.6c0,1.88-1.09,2.36-4.51,2.36-.36,0-.51-.05-.63-.29l-1.25-2.58c1.01.02,1.91,0,2.39-.02.43-.02.58-.19.58-.77v-1.3h-5.93c.84.67,1.71,1.42,2.22,1.95l-.02.24-2.41,1.93h-.24c-.65-.84-1.81-2-2.68-2.67l.02-.24,1.71-1.2h-3.06l-3.38.07-.17-.19v-2.55l.19-.14,3.35.07h10.39v-.99h-7.48l-3.38.07-.17-.14.07-3.27v-3.13l-.07-2.45.17-.12,3.5.05h2.92v-.99ZM88.64,7.6h-3.35v1.03h3.35v-1.03ZM85.28,10.9v1.06h3.35v-1.06h-3.35ZM95.53,8.64v-1.03h-3.52v1.03h3.52ZM92.01,11.96h3.52v-1.06h-3.52v1.06Z"/>
      <path class="cls-4" d="M110.86.79l2.56-.07.17.17-.07,2.79v4.02l.07,2.7-.19.22-2.56-.07h-3.62v12.49h-3.21l.12-8.18V4.09l-.07-3.2.15-.17,2.58.07h4.08ZM110.5,4.52v-1.23h-3.28v1.23h3.28ZM107.22,7.99h3.28v-1.3h-3.28v1.3ZM117.93,10.54l-2.56.07-.19-.22.07-2.7V3.68l-.07-2.79.17-.17,2.56.07h4.41l2.58-.07.14.17-.07,3.2v9.1l.12,6.88c0,2.07-1.33,2.79-4.08,2.79h-.72c-.48,0-.58-.12-.67-.36l-1.04-2.86c.89,0,2.12-.02,2.82-.1.29-.05.34-.14.34-.72v-8.28h-3.81ZM121.74,4.52v-1.23h-3.42v1.23h3.42ZM118.31,7.99h3.42v-1.3h-3.42v1.3Z"/>
      <path class="cls-4" d="M137.55.17l.17-.17h3.23l.17.17v2.45h4.51l4-.07.17.17v2.7l-.17.17-4-.07h-13.26v5.2c0,5.54-.89,9.1-2.75,11.89-.1.14-.17.19-.26.19s-.19-.05-.29-.14l-2.24-2.09c1.52-2.77,2.14-5.22,2.14-9.79v-4.12l-.07-3.92.17-.17,4,.07h4.49V.17ZM136.68,21.7v1.3h-3.47l.12-4.43v-2.17l-.07-2.74.17-.17,3.47.07h1.3v-7.39l.12-.14h3.21l.15.14v2.09h4.29l2.94-.07.14.12v2.74l-.17.17-2.92-.07h-4.29v2.41h2.6l3.45-.07.17.17-.07,2.74v1.81l.12,4.55h-3.57v-1.06h-7.69ZM144.37,16.34h-7.69v2.55h7.69v-2.55Z"/>
    </g>
  </g>
  <g>
    <g>
      <path class="cls-6" d="M153.42,35.75c4.39-.38,8.61.18,12.67,1.69,1.54,1.87,1.54,3.75,0,5.62-5.7,1.3-11.46,2.24-17.28,2.81-3.5.09-6.77-.66-9.79-2.25-.71-1.07-.52-2.01.58-2.81,4.74-1.7,9.34-3.39,13.83-5.06Z"/>
      <path class="cls-7" d="M116.55,33.5c6.78-.37,12.35,1.88,16.71,6.75.9,1.62.71,3.12-.58,4.5-6.26.71-12.4.71-18.44,0,1.54-1.5,3.07-3,4.61-4.5-1.44-2.05-2.21-4.3-2.3-6.75Z"/>
      <path class="cls-9" d="M22.07,35.75c7.81.29,14.15,3.29,19.01,9,.95,2.48.37,4.54-1.73,6.19-4.61.37-9.22.75-13.83,1.12-1.06.42-2.02.98-2.88,1.69.63-2.92,2.36-5.35,5.18-7.31-3.91-2.57-5.83-6.13-5.76-10.69Z"/>
      <path class="cls-1" d="M83.14,34.62c2.23-1.36,4.53-1.17,6.91.56,3.47,1.89,6.16,4.51,8.07,7.87-.69,1.81-1.84,3.31-3.46,4.5-5.95,3.09-11.71,6.47-17.28,10.12-1.24.83-2.01,1.96-2.3,3.37,7.05,4.64,13.39,10.08,19.01,16.31,2.75,3.49,3.33,7.24,1.73,11.25-3.26,1.55-5.95.8-8.07-2.25-5.71-8.39-12.44-15.89-20.16-22.5-.77-2.25-.77-4.5,0-6.75,6.21-5.11,11.97-10.74,17.28-16.87,1.01-2.45.43-4.32-1.73-5.62Z"/>
      <path class="cls-3" d="M40.51,63.87c9.91.33,17.21,4.64,21.89,12.94-.3,1.42-1.07,2.54-2.3,3.37-6.13-.03-12.27-.41-18.44-1.12,2.24-2.14,4.92-3.08,8.07-2.81-1.33-4.5-4.21-7.87-8.64-10.12-.53-.67-.73-1.42-.58-2.25Z"/>
      <path class="cls-2" d="M171.86,65.56c-5.07-2.3-10.45-3.43-16.13-3.37,7.13-1.17,12.51-4.73,16.13-10.69-.12-1.06-.51-2-1.15-2.81-4.27-2.4-8.88-3.34-13.83-2.81-6.54,1.63-13.07,3.5-19.59,5.62-1.23,3.5-3.34,6.5-6.34,9,.47-3.51,1.24-6.88,2.3-10.12-2.14-1.42-4.45-2.55-6.91-3.37-6.03,3.9-12.75,6.15-20.16,6.75-.17,1.18.02,2.31.58,3.37,3.21,4.04,7.24,5.36,12.1,3.94-2.84,3.9-6.1,7.46-9.79,10.69-.71,2.85-.13,5.48,1.73,7.87,3.14,1.62,5.64.87,7.49-2.25.29,3.66,1.44,7.04,3.46,10.12,1.66,1.86,3.78,2.61,6.34,2.25-1-6.4-1-12.78,0-19.12,4.35-3.87,7.81-8.37,10.37-13.5,2.09,1.48,4.01,3.17,5.76,5.06-4.45,2.36-8.68,4.98-12.67,7.87,2.17,4.66,4.28,9.35,6.34,14.06,2.17,2.84,5.05,4.34,8.64,4.5v-3.37c4.67-.36,9.28.01,13.83,1.12.79,3.94,3.09,5.25,6.91,3.94,3.45-5.75,5.95-11.94,7.49-18.56.78-2.79-.18-4.85-2.88-6.19ZM145.36,79.62c-1.02-.93-1.4-2.05-1.15-3.37,3.98.19,4.37,1.31,1.15,3.37ZM147.66,72.87c-3.94.42-6.63-1.08-8.07-4.5,2.61.81,5.3,1.18,8.07,1.13v3.37ZM147.66,56.56c-.87-.75-1.25-1.69-1.15-2.81,3.86-.19,7.7,0,11.52.56-3.24,1.94-6.7,2.69-10.37,2.25ZM161.49,79.62c-1.65-.54-3.18-1.29-4.61-2.25,2.32-.64,4.24-1.76,5.76-3.37-2.45-1.88-4.76-3.75-6.91-5.62,8.19.31,10.12,4.06,5.76,11.25Z"/>
      <path class="cls-8" d="M35.9,64.43c-5.53-2.62-10.52-5.81-14.98-9.56-.38,4.51,1.16,8.25,4.61,11.25-6.21,4.08-12.93,5.58-20.16,4.5-1.8.6-3.52,1.35-5.18,2.25-1.15,12.07,3.26,14.32,13.25,6.75,4.3,1.94,7.95,4.75,10.95,8.44,1.92.75,3.84.75,5.76,0,10.54-6.1,12.47-13.97,5.76-23.62ZM18.61,77.93c-1.1-.81-1.29-1.74-.58-2.81,2.38-2.51,4.87-4.76,7.49-6.75,1.52-.19,2.87.18,4.03,1.13,1.31,8.45-2.33,11.26-10.95,8.44Z"/>
    </g>
    <g>
      <path class="cls-10" d="M153.42,35.75c4.39-.38,8.61.18,12.67,1.69,1.54,1.87,1.54,3.75,0,5.62-5.7,1.3-11.46,2.24-17.28,2.81-3.5.09-6.77-.66-9.79-2.25-.71-1.07-.52-2.01.58-2.81,4.74-1.7,9.34-3.39,13.83-5.06Z"/>
      <path class="cls-10" d="M116.55,33.5c6.78-.37,12.35,1.88,16.71,6.75.9,1.62.71,3.12-.58,4.5-6.26.71-12.4.71-18.44,0,1.54-1.5,3.07-3,4.61-4.5-1.44-2.05-2.21-4.3-2.3-6.75Z"/>
      <path class="cls-10" d="M22.07,35.75c7.81.29,14.15,3.29,19.01,9,.95,2.48.37,4.54-1.73,6.19-4.61.37-9.22.75-13.83,1.12-1.06.42-2.02.98-2.88,1.69.63-2.92,2.36-5.35,5.18-7.31-3.91-2.57-5.83-6.13-5.76-10.69Z"/>
      <path class="cls-10" d="M83.14,34.62c2.23-1.36,4.53-1.17,6.91.56,3.47,1.89,6.16,4.51,8.07,7.87-.69,1.81-1.84,3.31-3.46,4.5-5.95,3.09-11.71,6.47-17.28,10.12-1.24.83-2.01,1.96-2.3,3.37,7.05,4.64,13.39,10.08,19.01,16.31,2.75,3.49,3.33,7.24,1.73,11.25-3.26,1.55-5.95.8-8.07-2.25-5.71-8.39-12.44-15.89-20.16-22.5-.77-2.25-.77-4.5,0-6.75,6.21-5.11,11.97-10.74,17.28-16.87,1.01-2.45.43-4.32-1.73-5.62Z"/>
      <path class="cls-10" d="M40.51,63.87c9.91.33,17.21,4.64,21.89,12.94-.3,1.42-1.07,2.54-2.3,3.37-6.13-.03-12.27-.41-18.44-1.12,2.24-2.14,4.92-3.08,8.07-2.81-1.33-4.5-4.21-7.87-8.64-10.12-.53-.67-.73-1.42-.58-2.25Z"/>
      <path class="cls-10" d="M171.86,65.56c-5.07-2.3-10.45-3.43-16.13-3.37,7.13-1.17,12.51-4.73,16.13-10.69-.12-1.06-.51-2-1.15-2.81-4.27-2.4-8.88-3.34-13.83-2.81-6.54,1.63-13.07,3.5-19.59,5.62-1.23,3.5-3.34,6.5-6.34,9,.47-3.51,1.24-6.88,2.3-10.12-2.14-1.42-4.45-2.55-6.91-3.37-6.03,3.9-12.75,6.15-20.16,6.75-.17,1.18.02,2.31.58,3.37,3.21,4.04,7.24,5.36,12.1,3.94-2.84,3.9-6.1,7.46-9.79,10.69-.71,2.85-.13,5.48,1.73,7.87,3.14,1.62,5.64.87,7.49-2.25.29,3.66,1.44,7.04,3.46,10.12,1.66,1.86,3.78,2.61,6.34,2.25-1-6.4-1-12.78,0-19.12,4.35-3.87,7.81-8.37,10.37-13.5,2.09,1.48,4.01,3.17,5.76,5.06-4.45,2.36-8.68,4.98-12.67,7.87,2.17,4.66,4.28,9.35,6.34,14.06,2.17,2.84,5.05,4.34,8.64,4.5v-3.37c4.67-.36,9.28.01,13.83,1.12.79,3.94,3.09,5.25,6.91,3.94,3.45-5.75,5.95-11.94,7.49-18.56.78-2.79-.18-4.85-2.88-6.19ZM145.36,79.62c-1.02-.93-1.4-2.05-1.15-3.37,3.98.19,4.37,1.31,1.15,3.37ZM147.66,72.87c-3.94.42-6.63-1.08-8.07-4.5,2.61.81,5.3,1.18,8.07,1.13v3.37ZM147.66,56.56c-.87-.75-1.25-1.69-1.15-2.81,3.86-.19,7.7,0,11.52.56-3.24,1.94-6.7,2.69-10.37,2.25ZM161.49,79.62c-1.65-.54-3.18-1.29-4.61-2.25,2.32-.64,4.24-1.76,5.76-3.37-2.45-1.88-4.76-3.75-6.91-5.62,8.19.31,10.12,4.06,5.76,11.25Z"/>
      <path class="cls-10" d="M35.9,64.43c-5.53-2.62-10.52-5.81-14.98-9.56-.38,4.51,1.16,8.25,4.61,11.25-6.21,4.08-12.93,5.58-20.16,4.5-1.8.6-3.52,1.35-5.18,2.25-1.15,12.07,3.26,14.32,13.25,6.75,4.3,1.94,7.95,4.75,10.95,8.44,1.92.75,3.84.75,5.76,0,10.54-6.1,12.47-13.97,5.76-23.62ZM18.61,77.93c-1.1-.81-1.29-1.74-.58-2.81,2.38-2.51,4.87-4.76,7.49-6.75,1.52-.19,2.87.18,4.03,1.13,1.31,8.45-2.33,11.26-10.95,8.44Z"/>
    </g>
    <g>
      <path class="cls-5" d="M153.42,35.75c4.39-.38,8.61.18,12.67,1.69,1.54,1.87,1.54,3.75,0,5.62-5.7,1.3-11.46,2.24-17.28,2.81-3.5.09-6.77-.66-9.79-2.25-.71-1.07-.52-2.01.58-2.81,4.74-1.7,9.34-3.39,13.83-5.06Z"/>
      <path class="cls-5" d="M116.55,33.5c6.78-.37,12.35,1.88,16.71,6.75.9,1.62.71,3.12-.58,4.5-6.26.71-12.4.71-18.44,0,1.54-1.5,3.07-3,4.61-4.5-1.44-2.05-2.21-4.3-2.3-6.75Z"/>
      <path class="cls-5" d="M22.07,35.75c7.81.29,14.15,3.29,19.01,9,.95,2.48.37,4.54-1.73,6.19-4.61.37-9.22.75-13.83,1.12-1.06.42-2.02.98-2.88,1.69.63-2.92,2.36-5.35,5.18-7.31-3.91-2.57-5.83-6.13-5.76-10.69Z"/>
      <path class="cls-5" d="M83.14,34.62c2.23-1.36,4.53-1.17,6.91.56,3.47,1.89,6.16,4.51,8.07,7.87-.69,1.81-1.84,3.31-3.46,4.5-5.95,3.09-11.71,6.47-17.28,10.12-1.24.83-2.01,1.96-2.3,3.37,7.05,4.64,13.39,10.08,19.01,16.31,2.75,3.49,3.33,7.24,1.73,11.25-3.26,1.55-5.95.8-8.07-2.25-5.71-8.39-12.44-15.89-20.16-22.5-.77-2.25-.77-4.5,0-6.75,6.21-5.11,11.97-10.74,17.28-16.87,1.01-2.45.43-4.32-1.73-5.62Z"/>
      <path class="cls-5" d="M40.51,63.87c9.91.33,17.21,4.64,21.89,12.94-.3,1.42-1.07,2.54-2.3,3.37-6.13-.03-12.27-.41-18.44-1.12,2.24-2.14,4.92-3.08,8.07-2.81-1.33-4.5-4.21-7.87-8.64-10.12-.53-.67-.73-1.42-.58-2.25Z"/>
      <path class="cls-5" d="M171.86,65.56c-5.07-2.3-10.45-3.43-16.13-3.37,7.13-1.17,12.51-4.73,16.13-10.69-.12-1.06-.51-2-1.15-2.81-4.27-2.4-8.88-3.34-13.83-2.81-6.54,1.63-13.07,3.5-19.59,5.62-1.23,3.5-3.34,6.5-6.34,9,.47-3.51,1.24-6.88,2.3-10.12-2.14-1.42-4.45-2.55-6.91-3.37-6.03,3.9-12.75,6.15-20.16,6.75-.17,1.18.02,2.31.58,3.37,3.21,4.04,7.24,5.36,12.1,3.94-2.84,3.9-6.1,7.46-9.79,10.69-.71,2.85-.13,5.48,1.73,7.87,3.14,1.62,5.64.87,7.49-2.25.29,3.66,1.44,7.04,3.46,10.12,1.66,1.86,3.78,2.61,6.34,2.25-1-6.4-1-12.78,0-19.12,4.35-3.87,7.81-8.37,10.37-13.5,2.09,1.48,4.01,3.17,5.76,5.06-4.45,2.36-8.68,4.98-12.67,7.87,2.17,4.66,4.28,9.35,6.34,14.06,2.17,2.84,5.05,4.34,8.64,4.5v-3.37c4.67-.36,9.28.01,13.83,1.12.79,3.94,3.09,5.25,6.91,3.94,3.45-5.75,5.95-11.94,7.49-18.56.78-2.79-.18-4.85-2.88-6.19ZM145.36,79.62c-1.02-.93-1.4-2.05-1.15-3.37,3.98.19,4.37,1.31,1.15,3.37ZM147.66,72.87c-3.94.42-6.63-1.08-8.07-4.5,2.61.81,5.3,1.18,8.07,1.13v3.37ZM147.66,56.56c-.87-.75-1.25-1.69-1.15-2.81,3.86-.19,7.7,0,11.52.56-3.24,1.94-6.7,2.69-10.37,2.25ZM161.49,79.62c-1.65-.54-3.18-1.29-4.61-2.25,2.32-.64,4.24-1.76,5.76-3.37-2.45-1.88-4.76-3.75-6.91-5.62,8.19.31,10.12,4.06,5.76,11.25Z"/>
      <path class="cls-5" d="M35.9,64.43c-5.53-2.62-10.52-5.81-14.98-9.56-.38,4.51,1.16,8.25,4.61,11.25-6.21,4.08-12.93,5.58-20.16,4.5-1.8.6-3.52,1.35-5.18,2.25-1.15,12.07,3.26,14.32,13.25,6.75,4.3,1.94,7.95,4.75,10.95,8.44,1.92.75,3.84.75,5.76,0,10.54-6.1,12.47-13.97,5.76-23.62ZM18.61,77.93c-1.1-.81-1.29-1.74-.58-2.81,2.38-2.51,4.87-4.76,7.49-6.75,1.52-.19,2.87.18,4.03,1.13,1.31,8.45-2.33,11.26-10.95,8.44Z"/>
    </g>
  </g>
</svg>